<svg width="1641" height="716" viewBox="0 0 1641 716" fill="none" xmlns="http://www.w3.org/2000/svg">
<path fill-rule="evenodd" clip-rule="evenodd" d="M333.2 80.2409L347.544 79.1232L335.284 71.1746L334.161 76.0594L0.767914 0.00109686L0.631381 0.480687L334.049 76.5447L333.2 80.2409Z" fill="url(#paint0_linear)"/>
<path d="M169.119 49.2952C169.773 49.4514 170.322 49.7325 170.766 50.1383C171.213 50.535 171.521 51.0155 171.691 51.5797C171.863 52.1348 171.879 52.7266 171.738 53.355C171.593 54.0016 171.317 54.5472 170.912 54.9918C170.508 55.4273 170.01 55.7269 169.419 55.8908C168.827 56.0546 168.194 56.0609 167.52 55.9097C166.846 55.7585 166.277 55.4825 165.812 55.0817C165.356 54.6829 165.039 54.2004 164.86 53.6341C164.683 53.0588 164.667 52.4478 164.812 51.8012C164.98 51.0544 165.31 50.4542 165.804 50.0007L169.791 46.1745L171.949 46.6587L169.119 49.2952ZM167.919 54.1338C168.374 54.236 168.784 54.1796 169.148 53.9647C169.521 53.7519 169.76 53.4087 169.866 52.9351C169.971 52.4707 169.9 52.0625 169.653 51.7108C169.416 51.361 169.07 51.1351 168.614 51.0329C168.159 50.9308 167.75 50.9871 167.386 51.202C167.024 51.4078 166.79 51.7475 166.684 52.221C166.577 52.6946 166.643 53.1063 166.88 53.456C167.117 53.8057 167.463 54.0317 167.919 54.1338ZM175.604 57.7232C174.811 57.5454 174.17 57.1862 173.679 56.6457C173.199 56.098 172.893 55.4171 172.76 54.6029C172.629 53.7796 172.674 52.8762 172.894 51.8926C173.115 50.9091 173.459 50.0776 173.927 49.3983C174.398 48.7098 174.965 48.2251 175.631 47.944C176.308 47.6558 177.043 47.6006 177.835 47.7784C178.636 47.9581 179.277 48.3219 179.757 48.8695C180.238 49.408 180.545 50.0889 180.676 50.9122C180.809 51.7264 180.765 52.6253 180.544 53.6089C180.324 54.5924 179.978 55.4284 179.508 56.1169C179.04 56.7962 178.472 57.281 177.804 57.5712C177.139 57.8523 176.405 57.903 175.604 57.7232ZM176.017 55.879C176.655 56.022 177.198 55.8616 177.646 55.3979C178.104 54.9362 178.446 54.1999 178.673 53.189C178.902 52.169 178.908 51.3526 178.691 50.7397C178.484 50.1288 178.062 49.7519 177.424 49.6089C176.787 49.4658 176.244 49.6262 175.795 50.09C175.347 50.5537 175.008 51.2956 174.779 52.3156C174.551 53.3356 174.54 54.151 174.747 54.7618C174.957 55.3636 175.38 55.736 176.017 55.879ZM184.208 59.6535C183.416 59.4758 182.774 59.1166 182.283 58.5761C181.804 58.0284 181.497 57.3475 181.364 56.5333C181.233 55.71 181.278 54.8066 181.499 53.823C181.719 52.8395 182.064 52.008 182.532 51.3287C183.002 50.6402 183.57 50.1555 184.236 49.8744C184.912 49.5862 185.647 49.531 186.439 49.7087C187.241 49.8885 187.881 50.2522 188.361 50.7999C188.843 51.3384 189.149 52.0193 189.28 52.8426C189.413 53.6568 189.369 54.5557 189.149 55.5392C188.928 56.5228 188.583 57.3588 188.113 58.0473C187.644 58.7266 187.077 59.2114 186.409 59.5016C185.743 59.7827 185.01 59.8333 184.208 59.6535ZM184.622 57.8094C185.259 57.9524 185.802 57.792 186.251 57.3283C186.708 56.8666 187.05 56.1303 187.277 55.1194C187.506 54.0994 187.512 53.283 187.296 52.6701C187.089 52.0592 186.666 51.6823 186.029 51.5392C185.391 51.3962 184.848 51.5566 184.4 52.0203C183.951 52.4841 183.613 53.226 183.384 54.246C183.155 55.2659 183.144 56.0814 183.352 56.6922C183.561 57.294 183.984 57.6664 184.622 57.8094ZM192.813 61.5839C192.02 61.4062 191.379 61.047 190.888 60.5064C190.408 59.9588 190.102 59.2779 189.969 58.4637C189.838 57.6404 189.883 56.737 190.103 55.7534C190.324 54.7699 190.668 53.9384 191.136 53.2591C191.607 52.5706 192.174 52.0858 192.84 51.8047C193.517 51.5166 194.251 51.4614 195.044 51.6391C195.845 51.8189 196.486 52.1826 196.966 52.7303C197.447 53.2688 197.754 53.9497 197.885 54.773C198.018 55.5872 197.974 56.4861 197.753 57.4696C197.533 58.4532 197.187 59.2892 196.717 59.9776C196.249 60.657 195.681 61.1418 195.013 61.432C194.348 61.7131 193.614 61.7637 192.813 61.5839ZM193.226 59.7398C193.864 59.8828 194.407 59.7224 194.855 59.2587C195.313 58.7969 195.655 58.0606 195.882 57.0498C196.111 56.0298 196.117 55.2133 195.9 54.6004C195.693 53.9896 195.271 53.6126 194.633 53.4696C193.996 53.3266 193.453 53.487 193.004 53.9507C192.556 54.4145 192.217 55.1564 191.988 56.1763C191.76 57.1963 191.749 58.0117 191.956 58.6226C192.166 59.2244 192.589 59.5967 193.226 59.7398Z" fill="#100554"/>
<path d="M177.707 29.9724L181.927 27.275C182.496 26.9147 182.953 26.5628 183.298 26.2193C183.654 25.8688 183.878 25.4886 183.97 25.0788C184.107 24.4686 184.022 23.9521 183.715 23.5294C183.419 23.0995 183.007 22.8254 182.479 22.7069C181.887 22.5741 181.364 22.6241 180.91 22.8571C180.456 23.09 180.155 23.5343 180.008 24.19L179.052 23.9755C179.191 23.3562 179.445 22.8632 179.814 22.4965C180.195 22.1227 180.636 21.8821 181.138 21.7748C181.643 21.6584 182.159 21.6595 182.687 21.778C183.179 21.8883 183.618 22.1063 184.004 22.4321C184.401 22.7508 184.687 23.1593 184.863 23.6577C185.038 24.1562 185.059 24.7014 184.926 25.2933C184.801 25.8488 184.527 26.3469 184.103 26.7874C183.679 27.2279 183.121 27.6671 182.43 28.1051L179.088 30.2106L183.801 31.2679L183.592 32.1968L177.514 30.833L177.707 29.9724ZM189.841 23.5551L187.696 33.1174L186.74 32.9029L188.649 24.3924L185.97 25.1402L186.206 24.0883L188.885 23.3406L189.841 23.5551ZM190.019 32.3472L191.248 32.623L190.972 33.8525L189.743 33.5766L190.019 32.3472ZM196.934 28.7334C197.544 28.8702 198.061 29.1249 198.484 29.4973C198.917 29.8717 199.216 30.3309 199.381 30.8749C199.555 31.4209 199.573 31.999 199.436 32.6091C199.299 33.2193 199.036 33.734 198.645 34.1534C198.264 34.5747 197.797 34.8623 197.246 35.0161C196.704 35.1719 196.128 35.1814 195.518 35.0445C194.908 34.9076 194.387 34.6519 193.954 34.2775C193.531 33.9051 193.232 33.4459 193.058 32.8999C192.893 32.356 192.879 31.7789 193.016 31.1687C193.177 30.4493 193.516 29.8557 194.032 29.388L198.206 25.4316L199.285 25.6738L196.151 28.6437C196.409 28.6442 196.67 28.6741 196.934 28.7334ZM195.727 34.1156C196.4 34.2668 196.988 34.1834 197.49 33.8656C198.001 33.5497 198.331 33.0594 198.48 32.3946C198.629 31.7298 198.54 31.1455 198.213 30.6417C197.895 30.1399 197.4 29.8135 196.726 29.6623C196.052 29.5111 195.459 29.5934 194.948 29.9092C194.447 30.2271 194.121 30.7184 193.972 31.3833C193.823 32.0481 193.907 32.6313 194.225 33.1331C194.552 33.6369 195.053 33.9644 195.727 34.1156Z" fill="#100554"/>
<path fill-rule="evenodd" clip-rule="evenodd" d="M343.914 111.838L352.515 98.6568L338.846 104.285L341.503 108.244L1.35751 378.796L1.64643 379.205L341.782 108.66L343.914 111.838Z" fill="url(#paint1_linear)"/>
<path d="M185.827 246.922C186.35 246.501 186.909 246.239 187.502 246.136C188.089 246.025 188.658 246.076 189.208 246.287C189.752 246.491 190.229 246.841 190.64 247.337C191.062 247.847 191.325 248.399 191.428 248.992C191.525 249.578 191.457 250.155 191.225 250.723C190.992 251.291 190.61 251.795 190.078 252.236C189.545 252.676 188.979 252.957 188.377 253.079C187.783 253.195 187.207 253.151 186.65 252.946C186.086 252.734 185.593 252.372 185.171 251.862C184.683 251.272 184.411 250.643 184.355 249.975L183.77 244.48L185.474 243.07L185.827 246.922ZM188.917 250.833C189.277 250.536 189.483 250.177 189.536 249.758C189.596 249.333 189.471 248.933 189.162 248.559C188.859 248.193 188.492 247.999 188.063 247.978C187.642 247.952 187.251 248.087 186.892 248.385C186.532 248.682 186.326 249.041 186.273 249.46C186.214 249.872 186.339 250.265 186.649 250.639C186.958 251.013 187.324 251.213 187.745 251.24C188.167 251.266 188.558 251.131 188.917 250.833ZM196.46 246.955C195.835 247.472 195.158 247.76 194.43 247.817C193.703 247.861 192.977 247.686 192.252 247.293C191.521 246.892 190.834 246.304 190.192 245.527C189.549 244.751 189.102 243.969 188.852 243.183C188.595 242.39 188.56 241.644 188.745 240.946C188.932 240.234 189.338 239.62 189.963 239.102C190.596 238.578 191.276 238.295 192.003 238.251C192.723 238.199 193.449 238.374 194.181 238.774C194.906 239.168 195.59 239.753 196.232 240.529C196.875 241.306 197.324 242.091 197.581 242.884C197.831 243.67 197.867 244.416 197.688 245.122C197.502 245.82 197.093 246.431 196.46 246.955ZM195.256 245.498C195.759 245.082 195.965 244.554 195.872 243.916C195.787 243.272 195.415 242.55 194.754 241.752C194.088 240.947 193.446 240.442 192.829 240.238C192.219 240.028 191.663 240.131 191.159 240.547C190.656 240.964 190.45 241.491 190.542 242.13C190.635 242.768 191.014 243.49 191.68 244.296C192.347 245.101 192.985 245.609 193.595 245.819C194.199 246.022 194.752 245.915 195.256 245.498ZM203.255 241.333C202.629 241.851 201.952 242.138 201.224 242.195C200.498 242.239 199.772 242.065 199.046 241.671C198.315 241.271 197.629 240.682 196.986 239.906C196.343 239.129 195.897 238.348 195.646 237.562C195.39 236.769 195.354 236.023 195.539 235.324C195.726 234.613 196.132 233.998 196.758 233.48C197.39 232.957 198.07 232.673 198.797 232.629C199.518 232.578 200.244 232.752 200.975 233.153C201.7 233.546 202.384 234.131 203.026 234.908C203.669 235.685 204.119 236.47 204.375 237.263C204.626 238.049 204.661 238.795 204.482 239.5C204.297 240.199 203.888 240.81 203.255 241.333ZM202.05 239.877C202.553 239.46 202.759 238.933 202.667 238.295C202.582 237.65 202.209 236.929 201.549 236.131C200.882 235.325 200.241 234.82 199.623 234.616C199.014 234.406 198.457 234.509 197.954 234.926C197.45 235.342 197.245 235.87 197.337 236.508C197.429 237.147 197.808 237.869 198.474 238.674C199.141 239.48 199.779 239.987 200.389 240.197C200.993 240.4 201.547 240.293 202.05 239.877ZM210.049 235.712C209.423 236.229 208.747 236.517 208.019 236.574C207.292 236.618 206.566 236.443 205.841 236.05C205.11 235.649 204.423 235.061 203.78 234.284C203.138 233.508 202.691 232.726 202.441 231.94C202.184 231.147 202.148 230.401 202.334 229.703C202.52 228.991 202.926 228.377 203.552 227.859C204.185 227.335 204.865 227.052 205.591 227.008C206.312 226.956 207.038 227.131 207.769 227.532C208.494 227.925 209.178 228.51 209.821 229.286C210.463 230.063 210.913 230.848 211.169 231.641C211.42 232.427 211.456 233.173 211.276 233.879C211.091 234.577 210.682 235.188 210.049 235.712ZM208.844 234.256C209.348 233.839 209.553 233.312 209.461 232.673C209.376 232.029 209.003 231.307 208.343 230.509C207.677 229.704 207.035 229.199 206.418 228.995C205.808 228.785 205.251 228.888 204.748 229.304C204.244 229.721 204.039 230.248 204.131 230.887C204.223 231.525 204.602 232.247 205.269 233.053C205.935 233.858 206.573 234.366 207.183 234.576C207.787 234.779 208.341 234.672 208.844 234.256Z" fill="#100554"/>
<path d="M174.668 229.243L175.12 224.254C175.183 223.584 175.184 223.008 175.124 222.525C175.065 222.029 174.901 221.619 174.634 221.295C174.235 220.813 173.775 220.564 173.252 220.548C172.732 220.519 172.263 220.677 171.845 221.022C171.378 221.408 171.097 221.853 171.004 222.354C170.91 222.856 171.077 223.365 171.506 223.883L170.75 224.508C170.346 224.019 170.112 223.516 170.048 223C169.985 222.47 170.065 221.974 170.288 221.511C170.505 221.041 170.821 220.633 171.239 220.288C171.627 219.967 172.068 219.753 172.562 219.648C173.057 219.529 173.555 219.553 174.057 219.719C174.558 219.886 175.002 220.203 175.389 220.67C175.752 221.109 175.977 221.631 176.066 222.236C176.155 222.841 176.161 223.551 176.084 224.365L175.702 228.297L179.424 225.218L180.031 225.951L175.231 229.923L174.668 229.243ZM184.993 219.302L184.022 220.105L185.271 221.615L184.516 222.24L183.267 220.73L179.276 224.032L178.687 223.32L177.083 215.671L177.913 214.984L179.517 222.633L182.678 220.018L180.768 217.71L181.523 217.085L183.433 219.393L184.404 218.59L184.993 219.302ZM186.359 219.08L187.33 218.277L188.133 219.248L187.162 220.051L186.359 219.08ZM188.447 211.556C189.116 211.136 189.806 210.959 190.516 211.026C191.226 211.08 191.844 211.423 192.367 212.056C192.766 212.538 192.992 213.053 193.046 213.602C193.102 214.137 193.013 214.659 192.779 215.167C192.547 215.662 192.204 216.097 191.751 216.472C191.298 216.847 190.803 217.105 190.266 217.247C189.73 217.375 189.201 217.365 188.678 217.216C188.156 217.054 187.696 216.732 187.297 216.25L188.053 215.626C188.469 216.129 188.959 216.384 189.521 216.391C190.086 216.385 190.626 216.167 191.144 215.739C191.662 215.31 191.973 214.823 192.078 214.276C192.184 213.716 192.029 213.184 191.612 212.681C191.196 212.177 190.705 211.929 190.141 211.935C189.578 211.928 189.038 212.139 188.52 212.568L188.511 212.557L188.51 212.576L187.981 213.014L187.571 212.518L187.323 208.397L183.775 211.334L183.186 210.622L187.608 206.963L188.197 207.675L188.447 211.556Z" fill="#100554"/>
<path d="M401.872 100.677L399.914 110.28L398.638 110.02L400.325 101.748L397.719 102.545L397.99 101.215L400.596 100.417L401.872 100.677ZM406.45 105.726C407.153 106.012 407.689 106.445 408.057 107.025C408.433 107.607 408.543 108.282 408.387 109.05C408.26 109.672 407.999 110.18 407.604 110.576C407.209 110.972 406.736 111.237 406.184 111.373C405.633 111.508 405.064 111.516 404.479 111.396C403.894 111.277 403.374 111.047 402.919 110.707C402.465 110.366 402.133 109.937 401.925 109.418C401.716 108.899 401.675 108.329 401.802 107.707L403.064 107.964C402.951 108.522 403.049 108.995 403.361 109.382C403.673 109.77 404.13 110.025 404.734 110.148C405.328 110.269 405.845 110.213 406.283 109.978C406.721 109.744 406.997 109.347 407.111 108.79C407.225 108.232 407.126 107.759 406.814 107.372C406.505 106.975 406.053 106.716 405.458 106.595L404.649 106.43L404.819 105.593L407.602 103.089L403.336 102.219L403.579 101.025L409.34 102.2L409.111 103.325L406.45 105.726ZM414.049 103.16L412.091 112.763L410.815 112.502L412.502 104.231L409.896 105.028L410.167 103.697L412.773 102.9L414.049 103.16ZM417.107 106.641C416.695 106.557 416.344 106.386 416.054 106.127C415.764 105.867 415.556 105.558 415.429 105.199C415.313 104.832 415.295 104.457 415.373 104.073C415.453 103.68 415.617 103.342 415.865 103.059C416.125 102.769 416.437 102.566 416.804 102.45C417.172 102.325 417.562 102.305 417.974 102.389C418.385 102.473 418.736 102.644 419.026 102.903C419.318 103.153 419.522 103.462 419.638 103.828C419.765 104.187 419.788 104.564 419.708 104.957C419.629 105.341 419.465 105.679 419.215 105.971C418.967 106.254 418.654 106.457 418.277 106.58C417.908 106.705 417.518 106.725 417.107 106.641ZM417.317 105.612C417.637 105.678 417.919 105.626 418.163 105.456C418.407 105.287 418.561 105.047 418.624 104.736C418.687 104.425 418.64 104.144 418.482 103.893C418.323 103.641 418.084 103.483 417.764 103.418C417.444 103.352 417.162 103.404 416.918 103.574C416.674 103.743 416.52 103.983 416.457 104.294C416.393 104.605 416.441 104.886 416.599 105.137C416.757 105.389 416.996 105.547 417.317 105.612Z" fill="#100554"/>
<path d="M944.855 320.436C945.353 320.887 945.7 321.397 945.895 321.967C946.096 322.529 946.135 323.099 946.013 323.675C945.897 324.245 945.627 324.771 945.201 325.254C944.763 325.752 944.26 326.098 943.69 326.293C943.127 326.481 942.546 326.504 941.949 326.364C941.351 326.223 940.793 325.925 940.275 325.468C939.757 325.012 939.39 324.496 939.175 323.921C938.967 323.353 938.92 322.777 939.035 322.194C939.156 321.605 939.436 321.061 939.874 320.564C940.38 319.989 940.958 319.622 941.609 319.461L946.944 318.021L948.604 319.483L944.855 320.436ZM941.478 324.102C941.828 324.411 942.214 324.558 942.637 324.544C943.066 324.537 943.441 324.351 943.762 323.987C944.076 323.63 944.21 323.238 944.163 322.811C944.123 322.39 943.928 322.025 943.578 321.717C943.227 321.409 942.841 321.261 942.419 321.275C942.003 321.282 941.634 321.467 941.313 321.831C940.993 322.195 940.852 322.588 940.892 323.009C940.932 323.429 941.127 323.794 941.478 324.102ZM946.492 330.943C945.883 330.406 945.493 329.783 945.322 329.073C945.165 328.362 945.223 327.618 945.498 326.84C945.778 326.055 946.252 325.284 946.918 324.528C947.584 323.771 948.286 323.207 949.023 322.836C949.766 322.459 950.497 322.306 951.216 322.38C951.948 322.452 952.618 322.757 953.228 323.293C953.844 323.836 954.231 324.463 954.389 325.174C954.553 325.877 954.494 326.622 954.213 327.407C953.939 328.185 953.468 328.952 952.802 329.709C952.136 330.465 951.431 331.032 950.688 331.41C949.951 331.781 949.22 331.933 948.495 331.867C947.777 331.794 947.109 331.486 946.492 330.943ZM947.741 329.524C948.232 329.956 948.785 330.076 949.401 329.885C950.024 329.7 950.678 329.219 951.363 328.441C952.053 327.656 952.451 326.943 952.556 326.302C952.668 325.667 952.478 325.133 951.988 324.701C951.498 324.27 950.944 324.149 950.328 324.341C949.712 324.532 949.059 325.02 948.368 325.804C947.677 326.589 947.276 327.299 947.164 327.934C947.059 328.562 947.251 329.093 947.741 329.524ZM953.111 336.77C952.501 336.234 952.111 335.61 951.941 334.9C951.783 334.19 951.842 333.445 952.116 332.667C952.397 331.882 952.87 331.112 953.536 330.355C954.203 329.599 954.904 329.035 955.641 328.664C956.384 328.286 957.115 328.134 957.834 328.207C958.566 328.28 959.237 328.584 959.846 329.121C960.463 329.664 960.85 330.29 961.007 331.001C961.171 331.705 961.112 332.449 960.832 333.234C960.557 334.012 960.087 334.779 959.421 335.536C958.755 336.293 958.05 336.86 957.307 337.238C956.57 337.609 955.839 337.761 955.114 337.694C954.395 337.621 953.727 337.313 953.111 336.77ZM954.36 335.352C954.85 335.783 955.403 335.904 956.02 335.712C956.643 335.527 957.296 335.046 957.981 334.269C958.672 333.484 959.07 332.771 959.174 332.129C959.286 331.494 959.097 330.961 958.606 330.529C958.116 330.097 957.563 329.977 956.947 330.168C956.331 330.359 955.677 330.847 954.986 331.632C954.296 332.416 953.894 333.126 953.783 333.762C953.677 334.39 953.87 334.92 954.36 335.352ZM959.729 342.598C959.12 342.061 958.73 341.438 958.559 340.728C958.401 340.017 958.46 339.273 958.735 338.495C959.015 337.71 959.489 336.939 960.155 336.183C960.821 335.426 961.523 334.862 962.259 334.491C963.003 334.114 963.734 333.961 964.452 334.035C965.184 334.107 965.855 334.412 966.465 334.948C967.081 335.491 967.468 336.118 967.626 336.829C967.789 337.532 967.731 338.277 967.45 339.062C967.176 339.84 966.705 340.607 966.039 341.364C965.373 342.12 964.668 342.687 963.925 343.065C963.188 343.436 962.457 343.588 961.732 343.522C961.013 343.449 960.346 343.141 959.729 342.598ZM960.978 341.179C961.469 341.611 962.022 341.731 962.638 341.54C963.261 341.355 963.915 340.874 964.6 340.096C965.29 339.311 965.688 338.598 965.793 337.957C965.905 337.322 965.715 336.788 965.225 336.356C964.735 335.925 964.181 335.804 963.565 335.996C962.949 336.187 962.296 336.675 961.605 337.459C960.914 338.244 960.513 338.954 960.401 339.589C960.296 340.217 960.488 340.747 960.978 341.179Z" fill="#100554"/>
<path d="M1278.02 548.648C1278.57 548.948 1279 549.332 1279.33 549.8C1279.68 550.263 1279.86 550.78 1279.89 551.349C1279.93 551.923 1279.79 552.504 1279.46 553.094C1279.14 553.683 1278.72 554.115 1278.21 554.388C1277.7 554.661 1277.15 554.781 1276.56 554.747C1275.98 554.712 1275.4 554.543 1274.85 554.238C1274.29 553.933 1273.84 553.543 1273.49 553.066C1273.15 552.59 1272.95 552.063 1272.91 551.485C1272.86 550.907 1273 550.323 1273.32 549.733L1275 550.654C1274.81 551.006 1274.78 551.356 1274.91 551.703C1275.04 552.05 1275.32 552.343 1275.75 552.58C1276.19 552.818 1276.58 552.895 1276.94 552.812C1277.3 552.733 1277.58 552.518 1277.77 552.166C1277.96 551.814 1277.99 551.464 1277.86 551.117C1277.74 550.774 1277.46 550.484 1277.03 550.247L1274.35 548.782L1277.31 544.192L1282.31 546.928L1281.44 548.512L1278.02 546.637L1277.06 548.124L1278.02 548.648ZM1284.87 552.396C1285.41 552.696 1285.85 553.08 1286.18 553.547C1286.52 554.011 1286.71 554.527 1286.74 555.097C1286.78 555.67 1286.63 556.252 1286.31 556.841C1285.99 557.431 1285.57 557.862 1285.06 558.136C1284.55 558.409 1284 558.529 1283.41 558.494C1282.82 558.46 1282.25 558.29 1281.69 557.986C1281.14 557.681 1280.69 557.291 1280.34 556.814C1280 556.338 1279.8 555.81 1279.75 555.232C1279.71 554.654 1279.85 554.07 1280.17 553.481L1281.85 554.402C1281.66 554.754 1281.63 555.103 1281.76 555.451C1281.89 555.798 1282.17 556.09 1282.6 556.328C1283.04 556.565 1283.43 556.642 1283.78 556.56C1284.15 556.481 1284.42 556.266 1284.62 555.914C1284.81 555.562 1284.84 555.212 1284.71 554.865C1284.59 554.522 1284.31 554.232 1283.88 553.994L1281.2 552.529L1284.16 547.94L1289.16 550.675L1288.29 552.26L1284.87 550.384L1283.91 551.871L1284.87 552.396ZM1288.87 561.91C1288.15 561.52 1287.64 560.997 1287.31 560.342C1287 559.683 1286.9 558.944 1286.99 558.125C1287.1 557.298 1287.39 556.442 1287.87 555.557C1288.36 554.673 1288.92 553.969 1289.56 553.446C1290.2 552.914 1290.88 552.605 1291.59 552.519C1292.32 552.429 1293.05 552.579 1293.76 552.969C1294.48 553.363 1294.99 553.89 1295.3 554.549C1295.62 555.199 1295.72 555.938 1295.62 556.766C1295.52 557.585 1295.23 558.437 1294.75 559.321C1294.27 560.205 1293.7 560.913 1293.06 561.445C1292.42 561.969 1291.74 562.278 1291.02 562.372C1290.3 562.458 1289.59 562.304 1288.87 561.91ZM1289.77 560.252C1290.35 560.565 1290.91 560.561 1291.47 560.24C1292.04 559.922 1292.57 559.309 1293.07 558.4C1293.57 557.483 1293.8 556.7 1293.76 556.052C1293.73 555.407 1293.43 554.928 1292.86 554.615C1292.28 554.301 1291.72 554.305 1291.16 554.627C1290.6 554.949 1290.07 555.568 1289.57 556.485C1289.07 557.402 1288.83 558.183 1288.86 558.827C1288.9 559.463 1289.2 559.938 1289.77 560.252ZM1296.6 566.143C1295.89 565.753 1295.37 565.231 1295.05 564.576C1294.74 563.917 1294.63 563.178 1294.73 562.358C1294.83 561.531 1295.12 560.675 1295.61 559.791C1296.09 558.907 1296.65 558.203 1297.29 557.679C1297.93 557.147 1298.61 556.838 1299.33 556.752C1300.06 556.662 1300.78 556.812 1301.49 557.202C1302.21 557.596 1302.73 558.123 1303.04 558.782C1303.35 559.433 1303.46 560.172 1303.36 560.999C1303.26 561.818 1302.97 562.67 1302.49 563.554C1302 564.439 1301.44 565.147 1300.8 565.678C1300.16 566.202 1299.48 566.511 1298.76 566.605C1298.04 566.691 1297.32 566.537 1296.6 566.143ZM1297.51 564.485C1298.08 564.799 1298.65 564.795 1299.21 564.473C1299.77 564.156 1300.31 563.542 1300.8 562.634C1301.31 561.717 1301.54 560.934 1301.5 560.285C1301.47 559.641 1301.17 559.162 1300.59 558.848C1300.02 558.534 1299.45 558.538 1298.89 558.86C1298.34 559.182 1297.81 559.801 1297.3 560.718C1296.8 561.635 1296.57 562.416 1296.6 563.06C1296.63 563.696 1296.94 564.171 1297.51 564.485Z" fill="#100554"/>
<path d="M561.159 140.195C561.817 140.33 562.375 140.592 562.833 140.983C563.293 141.365 563.617 141.835 563.805 142.393C563.996 142.942 564.031 143.533 563.911 144.166C563.787 144.817 563.53 145.371 563.139 145.829C562.75 146.278 562.263 146.594 561.677 146.777C561.091 146.96 560.459 146.988 559.78 146.859C559.102 146.73 558.524 146.473 558.046 146.088C557.577 145.705 557.244 145.233 557.046 144.673C556.85 144.104 556.814 143.494 556.937 142.843C557.08 142.091 557.391 141.48 557.869 141.01L561.726 137.054L563.9 137.466L561.159 140.195ZM560.12 145.071C560.578 145.158 560.986 145.088 561.342 144.861C561.708 144.636 561.936 144.285 562.027 143.808C562.115 143.34 562.031 142.935 561.773 142.592C561.524 142.25 561.171 142.036 560.712 141.949C560.254 141.862 559.846 141.931 559.49 142.158C559.135 142.376 558.912 142.723 558.822 143.2C558.731 143.677 558.81 144.086 559.059 144.428C559.308 144.77 559.661 144.984 560.12 145.071ZM567.92 148.403C567.122 148.252 566.469 147.914 565.96 147.39C565.462 146.859 565.134 146.188 564.974 145.379C564.815 144.561 564.83 143.656 565.018 142.666C565.206 141.675 565.523 140.833 565.968 140.139C566.415 139.435 566.966 138.932 567.622 138.628C568.289 138.318 569.022 138.238 569.819 138.39C570.626 138.543 571.279 138.885 571.776 139.417C572.276 139.939 572.605 140.609 572.763 141.428C572.923 142.237 572.909 143.137 572.721 144.127C572.533 145.118 572.215 145.965 571.768 146.668C571.323 147.363 570.772 147.866 570.114 148.178C569.458 148.481 568.726 148.556 567.92 148.403ZM568.272 146.546C568.914 146.668 569.451 146.49 569.884 146.011C570.326 145.535 570.643 144.788 570.836 143.77C571.031 142.743 571.01 141.927 570.774 141.321C570.546 140.717 570.112 140.355 569.47 140.233C568.828 140.111 568.291 140.289 567.858 140.768C567.425 141.246 567.111 141.999 566.916 143.026C566.721 144.053 566.738 144.868 566.965 145.472C567.194 146.066 567.63 146.425 568.272 146.546ZM576.583 150.047C575.786 149.896 575.132 149.558 574.624 149.034C574.126 148.503 573.797 147.832 573.637 147.023C573.479 146.204 573.494 145.3 573.682 144.31C573.87 143.319 574.186 142.477 574.632 141.782C575.079 141.079 575.63 140.575 576.286 140.272C576.953 139.962 577.685 139.882 578.483 140.034C579.29 140.187 579.942 140.529 580.44 141.06C580.94 141.583 581.268 142.253 581.426 143.072C581.586 143.881 581.572 144.781 581.385 145.771C581.197 146.761 580.879 147.608 580.432 148.312C579.987 149.007 579.435 149.51 578.778 149.822C578.122 150.125 577.39 150.2 576.583 150.047ZM576.936 148.19C577.578 148.312 578.115 148.134 578.548 147.655C578.99 147.179 579.307 146.431 579.5 145.414C579.695 144.387 579.674 143.57 579.438 142.965C579.21 142.361 578.775 141.999 578.133 141.877C577.492 141.755 576.954 141.933 576.522 142.412C576.089 142.89 575.775 143.643 575.58 144.67C575.385 145.697 575.402 146.512 575.629 147.116C575.858 147.71 576.294 148.068 576.936 148.19ZM585.247 151.691C584.449 151.539 583.796 151.202 583.288 150.678C582.79 150.146 582.461 149.476 582.301 148.667C582.143 147.848 582.158 146.944 582.346 145.953C582.534 144.963 582.85 144.121 583.296 143.426C583.743 142.723 584.294 142.219 584.95 141.916C585.617 141.606 586.349 141.526 587.147 141.677C587.954 141.831 588.606 142.173 589.104 142.704C589.603 143.227 589.932 143.897 590.09 144.715C590.25 145.525 590.236 146.425 590.048 147.415C589.86 148.405 589.543 149.252 589.096 149.956C588.651 150.65 588.099 151.154 587.441 151.466C586.786 151.769 586.054 151.844 585.247 151.691ZM585.599 149.834C586.241 149.956 586.779 149.777 587.211 149.299C587.653 148.822 587.971 148.075 588.164 147.057C588.359 146.03 588.338 145.214 588.101 144.609C587.874 144.005 587.439 143.642 586.797 143.521C586.155 143.399 585.618 143.577 585.185 144.055C584.753 144.534 584.439 145.287 584.244 146.314C584.049 147.341 584.065 148.156 584.293 148.76C584.522 149.354 584.958 149.712 585.599 149.834Z" fill="#100554"/>
<path d="M575.064 112.653L573.238 122.281L572.275 122.098L573.901 113.529L571.248 114.365L571.449 113.306L574.102 112.47L575.064 112.653ZM582.352 114.035L582.18 114.943L576.894 122.975L575.89 122.784L581.176 114.753L576.266 113.821L576.438 112.913L582.352 114.035ZM580.208 122.321L581.446 122.556L581.211 123.794L579.973 123.559L580.208 122.321ZM587 118.48C587.614 118.596 588.139 118.834 588.575 119.192C589.019 119.552 589.333 120.001 589.516 120.539C589.708 121.079 589.746 121.656 589.629 122.27C589.513 122.885 589.266 123.408 588.89 123.84C588.522 124.274 588.066 124.577 587.52 124.749C586.984 124.922 586.408 124.951 585.794 124.834C585.18 124.718 584.65 124.48 584.205 124.12C583.77 123.762 583.456 123.313 583.264 122.773C583.081 122.234 583.048 121.658 583.164 121.044C583.302 120.319 583.621 119.715 584.121 119.23L588.161 115.138L589.248 115.344L586.214 118.416C586.472 118.408 586.734 118.429 587 118.48ZM585.971 123.899C586.65 124.028 587.235 123.925 587.726 123.591C588.226 123.258 588.539 122.757 588.666 122.088C588.793 121.418 588.685 120.837 588.342 120.345C588.007 119.854 587.501 119.544 586.822 119.415C586.144 119.286 585.554 119.388 585.054 119.721C584.563 120.055 584.254 120.557 584.127 121.226C584 121.896 584.104 122.476 584.438 122.967C584.782 123.46 585.293 123.77 585.971 123.899Z" fill="#100554"/>
<path d="M973.142 302.006L966.867 309.533L966.114 308.906L971.699 302.206L968.974 301.648L969.664 300.82L972.389 301.378L973.142 302.006ZM977.414 309.559C976.942 310.125 976.369 310.498 975.697 310.679L970.177 312.293L969.328 311.585L973.472 310.374C973.243 310.255 973.024 310.109 972.816 309.936C972.336 309.536 971.989 309.07 971.775 308.54C971.568 308.015 971.512 307.47 971.607 306.905C971.708 306.345 971.959 305.826 972.36 305.345C972.76 304.865 973.226 304.524 973.758 304.324C974.297 304.129 974.843 304.086 975.396 304.195C975.957 304.31 976.477 304.567 976.958 304.968C977.438 305.368 977.781 305.831 977.988 306.355C978.202 306.886 978.258 307.431 978.156 307.99C978.062 308.555 977.814 309.078 977.414 309.559ZM973.112 305.973C972.676 306.496 972.485 307.054 972.539 307.645C972.599 308.243 972.895 308.763 973.426 309.205C973.956 309.647 974.517 309.841 975.109 309.788C975.707 309.74 976.225 309.454 976.661 308.931C977.097 308.408 977.285 307.847 977.224 307.25C977.171 306.658 976.878 306.141 976.348 305.699C975.817 305.257 975.253 305.06 974.654 305.107C974.063 305.161 973.549 305.449 973.112 305.973ZM973.485 313.41L974.453 314.217L973.647 315.185L972.679 314.378L973.485 313.41ZM981.628 319.286L980.66 318.479L979.405 319.985L978.652 319.357L979.907 317.852L975.928 314.535L976.52 313.825L983.744 310.844L984.572 311.534L977.348 314.516L980.499 317.142L982.417 314.841L983.17 315.468L981.251 317.77L982.219 318.576L981.628 319.286Z" fill="#100554"/>
<path d="M1306.67 526.648L1306.25 527.47L1298.91 533.683L1298 533.217L1305.34 527.004L1300.89 524.724L1301.31 523.902L1306.67 526.648ZM1302.27 533.991L1303.39 534.566L1302.82 535.687L1301.7 535.113L1302.27 533.991ZM1310.89 534.143C1311.22 534.577 1311.42 535.046 1311.49 535.552C1311.56 536.054 1311.48 536.541 1311.24 537.015C1310.97 537.546 1310.6 537.935 1310.14 538.181C1309.69 538.422 1309.19 538.53 1308.65 538.504C1308.11 538.469 1307.57 538.314 1307.03 538.037C1306.49 537.76 1306.05 537.413 1305.71 536.997C1305.37 536.572 1305.17 536.104 1305.09 535.594C1305.03 535.08 1305.14 534.557 1305.41 534.026C1305.65 533.552 1305.99 533.199 1306.44 532.966C1306.9 532.728 1307.4 532.618 1307.95 532.636C1307.69 532.254 1307.54 531.843 1307.51 531.405C1307.47 530.958 1307.57 530.518 1307.79 530.086C1308.06 529.563 1308.41 529.183 1308.85 528.945C1309.28 528.707 1309.75 528.603 1310.23 528.633C1310.73 528.659 1311.21 528.787 1311.66 529.017C1312.11 529.247 1312.48 529.555 1312.79 529.942C1313.1 530.325 1313.29 530.763 1313.36 531.257C1313.42 531.75 1313.32 532.258 1313.05 532.781C1312.83 533.213 1312.52 533.546 1312.14 533.78C1311.76 534.006 1311.34 534.127 1310.89 534.143ZM1311.22 529.864C1310.72 529.609 1310.24 529.522 1309.77 529.605C1309.3 529.692 1308.93 530.002 1308.66 530.533C1308.41 531.032 1308.38 531.505 1308.58 531.954C1308.79 532.407 1309.13 532.757 1309.61 533.004C1310.1 533.251 1310.58 533.324 1311.06 533.225C1311.55 533.129 1311.92 532.833 1312.17 532.334C1312.45 531.803 1312.48 531.321 1312.27 530.889C1312.07 530.461 1311.72 530.119 1311.22 529.864ZM1307.47 537.19C1308.08 537.505 1308.65 537.617 1309.17 537.526C1309.69 537.427 1310.09 537.107 1310.37 536.568C1310.64 536.028 1310.67 535.521 1310.44 535.047C1310.21 534.565 1309.79 534.166 1309.18 533.851C1308.56 533.536 1308 533.428 1307.47 533.527C1306.95 533.618 1306.56 533.933 1306.28 534.473C1306 535.013 1305.98 535.524 1306.2 536.006C1306.43 536.48 1306.85 536.875 1307.47 537.19Z" fill="#100554"/>
<path d="M1551.72 627.676C1552.3 627.786 1552.81 628.006 1553.25 628.337C1553.7 628.66 1554.03 629.075 1554.24 629.58C1554.46 630.078 1554.51 630.634 1554.39 631.248C1554.27 631.862 1554.02 632.365 1553.63 632.757C1553.26 633.141 1552.8 633.405 1552.26 633.549C1551.73 633.686 1551.17 633.699 1550.6 633.589C1550.02 633.479 1549.5 633.263 1549.05 632.939C1548.61 632.608 1548.28 632.194 1548.06 631.696C1547.85 631.191 1547.81 630.631 1547.93 630.017L1548.89 630.2C1548.77 630.842 1548.88 631.382 1549.24 631.82C1549.6 632.25 1550.11 632.528 1550.77 632.654C1551.43 632.78 1552.01 632.709 1552.5 632.44C1552.99 632.165 1553.31 631.706 1553.43 631.065C1553.55 630.423 1553.43 629.887 1553.06 629.456C1552.71 629.018 1552.2 628.736 1551.54 628.611L1548.79 628.087L1550.05 623.339L1555.35 624.347L1555.18 625.255L1550.76 624.414L1549.99 627.346L1551.72 627.676ZM1555.34 633.038L1556.57 633.274L1556.34 634.512L1555.1 634.276L1555.34 633.038ZM1561.19 635.607C1560.42 635.46 1559.8 635.128 1559.33 634.611C1558.87 634.095 1558.56 633.439 1558.42 632.643C1558.28 631.837 1558.3 630.934 1558.49 629.935C1558.69 628.935 1558.99 628.091 1559.42 627.403C1559.85 626.705 1560.37 626.201 1560.99 625.892C1561.62 625.584 1562.32 625.503 1563.09 625.65C1563.86 625.797 1564.47 626.128 1564.94 626.643C1565.41 627.161 1565.71 627.822 1565.86 628.628C1566 629.425 1565.97 630.323 1565.78 631.323C1565.59 632.322 1565.28 633.17 1564.86 633.868C1564.43 634.557 1563.9 635.055 1563.28 635.363C1562.66 635.672 1561.96 635.754 1561.19 635.607ZM1561.37 634.672C1562.21 634.833 1562.94 634.604 1563.54 633.987C1564.15 633.372 1564.58 632.423 1564.82 631.139C1565.07 629.856 1565.02 628.815 1564.67 628.019C1564.34 627.224 1563.75 626.746 1562.91 626.585C1562.07 626.425 1561.34 626.652 1560.73 627.267C1560.13 627.884 1559.7 628.834 1559.46 630.118C1559.21 631.401 1559.26 632.441 1559.59 633.236C1559.93 634.033 1560.53 634.511 1561.37 634.672Z" fill="#100554"/>
<path d="M825.866 210.721L819.287 217.984L818.322 217.11L823.99 210.853L821.341 210.211L822.253 209.205L824.901 209.847L825.866 210.721ZM827.187 216.488C827.664 216.921 827.999 217.413 828.192 217.965C828.384 218.517 828.418 219.077 828.295 219.645C828.177 220.206 827.905 220.721 827.479 221.192C827.047 221.669 826.554 221.997 826.001 222.177C825.455 222.349 824.897 222.367 824.329 222.23C823.76 222.093 823.238 221.808 822.76 221.376C822.276 220.937 821.938 220.442 821.745 219.889C821.56 219.344 821.526 218.79 821.643 218.229C821.767 217.662 822.045 217.139 822.478 216.662C822.985 216.101 823.569 215.749 824.229 215.604L829.731 214.222L830.831 215.218L826.815 216.189C826.98 216.314 827.104 216.413 827.187 216.488ZM823.597 220.452C824.053 220.866 824.549 221.062 825.083 221.043C825.63 221.022 826.111 220.784 826.524 220.327C826.938 219.871 827.125 219.372 827.085 218.832C827.052 218.299 826.807 217.825 826.35 217.412C825.887 216.992 825.388 216.792 824.854 216.812C824.32 216.832 823.846 217.07 823.432 217.526C823.019 217.983 822.825 218.481 822.852 219.022C822.892 219.562 823.14 220.038 823.597 220.452ZM833.31 223.848C833.5 224.347 833.558 224.84 833.483 225.326C833.407 225.812 833.194 226.249 832.844 226.636C832.443 227.079 831.988 227.366 831.479 227.497C830.976 227.621 830.459 227.594 829.928 227.415C829.404 227.243 828.904 226.94 828.427 226.508C827.949 226.076 827.599 225.607 827.376 225.103C827.153 224.599 827.078 224.09 827.152 223.578C827.232 223.058 827.472 222.577 827.873 222.135C828.224 221.747 828.638 221.492 829.114 221.369C829.59 221.247 830.086 221.255 830.602 221.395C830.482 220.971 830.465 220.553 830.55 220.139C830.635 219.725 830.834 219.345 831.148 218.999C831.549 218.556 831.994 218.273 832.483 218.15C832.973 218.027 833.456 218.043 833.933 218.197C834.417 218.359 834.856 218.618 835.25 218.975C835.651 219.338 835.952 219.75 836.153 220.209C836.361 220.674 836.428 221.157 836.354 221.656C836.279 222.155 836.042 222.626 835.641 223.069C835.327 223.415 834.969 223.65 834.566 223.776C834.162 223.902 833.744 223.926 833.31 223.848ZM834.413 219.898C834.047 219.566 833.651 219.384 833.227 219.352C832.809 219.327 832.428 219.504 832.084 219.885C831.751 220.251 831.616 220.651 831.677 221.084C831.744 221.51 831.958 221.886 832.318 222.212C832.677 222.538 833.073 222.713 833.503 222.738C833.94 222.756 834.325 222.582 834.657 222.215C835.001 221.835 835.14 221.438 835.074 221.025C835.007 220.612 834.787 220.237 834.413 219.898ZM829.263 225.584C829.727 226.004 830.194 226.232 830.665 226.268C831.149 226.304 831.576 226.118 831.945 225.71C832.309 225.308 832.446 224.872 832.356 224.401C832.28 223.929 832.01 223.483 831.547 223.063C831.09 222.649 830.62 222.425 830.136 222.389C829.665 222.353 829.248 222.536 828.884 222.937C828.515 223.345 828.368 223.785 828.444 224.257C828.534 224.728 828.806 225.171 829.263 225.584ZM837.748 225.261C837.436 224.979 837.222 224.652 837.105 224.281C836.987 223.911 836.965 223.538 837.039 223.165C837.127 222.79 837.302 222.458 837.565 222.167C837.834 221.87 838.148 221.663 838.506 221.546C838.876 221.428 839.249 221.413 839.623 221.501C840.004 221.581 840.35 221.762 840.661 222.044C840.973 222.326 841.187 222.652 841.304 223.023C841.428 223.387 841.446 223.756 841.359 224.131C841.285 224.504 841.113 224.84 840.844 225.137C840.581 225.428 840.267 225.635 839.903 225.759C839.546 225.875 839.173 225.891 838.786 225.804C838.405 225.724 838.059 225.543 837.748 225.261ZM838.453 224.482C838.695 224.702 838.964 224.801 839.26 224.779C839.556 224.758 839.811 224.63 840.024 224.395C840.237 224.16 840.34 223.894 840.332 223.597C840.324 223.3 840.198 223.042 839.956 222.822C839.714 222.603 839.445 222.504 839.149 222.525C838.852 222.546 838.598 222.675 838.385 222.91C838.172 223.145 838.069 223.411 838.077 223.708C838.085 224.005 838.21 224.263 838.453 224.482Z" fill="#100554"/>
<path d="M1151.09 473.648L1146.42 482.265L1145.28 481.645L1149.3 474.222L1146.57 474.226L1147.22 473.032L1149.94 473.028L1151.09 473.648ZM1155.17 484.884L1154.12 484.318L1153.24 485.955L1152.09 485.335L1152.98 483.698L1148.56 481.304L1149.14 480.233L1155.43 475.998L1156.66 476.664L1150.38 480.907L1153.56 482.627L1154.88 480.189L1156.02 480.809L1154.7 483.247L1155.75 483.813L1155.17 484.884ZM1155.31 485.869L1160.02 484.438C1160.6 484.265 1161.09 484.064 1161.49 483.835C1161.9 483.61 1162.2 483.326 1162.38 482.981C1162.65 482.497 1162.7 482.039 1162.55 481.608C1162.41 481.182 1162.13 480.853 1161.7 480.622C1161.23 480.364 1160.77 480.284 1160.32 480.383C1159.89 480.477 1159.53 480.783 1159.25 481.3L1158.12 480.686C1158.43 480.104 1158.83 479.684 1159.29 479.428C1159.77 479.164 1160.26 479.044 1160.78 479.07C1161.3 479.099 1161.81 479.245 1162.29 479.507C1162.74 479.752 1163.12 480.088 1163.42 480.515C1163.72 480.943 1163.88 481.426 1163.92 481.966C1163.96 482.498 1163.83 483.043 1163.53 483.601C1163.26 484.093 1162.86 484.498 1162.33 484.815C1161.81 485.128 1161.19 485.391 1160.47 485.606L1157.07 486.597L1160.97 488.71L1160.37 489.818L1154.8 486.805L1155.31 485.869ZM1166.47 485.16C1166.1 484.96 1165.81 484.694 1165.61 484.362C1165.41 484.029 1165.3 483.673 1165.28 483.292C1165.28 482.908 1165.37 482.543 1165.55 482.199C1165.75 481.846 1166 481.57 1166.32 481.372C1166.65 481.17 1167.01 481.067 1167.4 481.063C1167.79 481.05 1168.16 481.144 1168.53 481.344C1168.9 481.544 1169.19 481.81 1169.39 482.143C1169.6 482.467 1169.7 482.821 1169.71 483.205C1169.72 483.586 1169.64 483.953 1169.44 484.306C1169.26 484.65 1169 484.926 1168.68 485.132C1168.36 485.331 1168 485.434 1167.6 485.442C1167.21 485.454 1166.84 485.36 1166.47 485.16ZM1166.97 484.237C1167.25 484.393 1167.54 484.425 1167.82 484.334C1168.1 484.243 1168.32 484.058 1168.47 483.779C1168.62 483.5 1168.66 483.217 1168.58 482.931C1168.5 482.644 1168.32 482.423 1168.03 482.267C1167.75 482.112 1167.46 482.079 1167.18 482.17C1166.9 482.261 1166.68 482.446 1166.53 482.725C1166.38 483.004 1166.34 483.287 1166.42 483.574C1166.5 483.86 1166.68 484.081 1166.97 484.237Z" fill="#100554"/>
<path fill-rule="evenodd" clip-rule="evenodd" d="M1458.4 643.931C1460.96 632.982 1471.78 626.152 1482.58 628.641L1482.01 631.075L1505.47 633.731L1483.27 625.72L1482.7 628.154C1471.62 625.601 1460.53 632.605 1457.92 643.817C1455.29 655.048 1462.15 666.259 1473.25 668.851L1581.25 694.08L1581.37 693.593L1473.37 668.364C1462.54 665.836 1455.84 654.899 1458.4 643.931ZM1634.87 684.24C1632.42 694.758 1621.69 701.257 1610.87 698.765L1611.42 696.432L1587.99 693.675L1610.22 701.584L1610.76 699.252C1621.83 701.804 1632.84 695.152 1635.36 684.354C1637.89 673.536 1630.94 662.675 1619.85 660.085L1511.84 634.855L1511.73 635.342L1619.73 660.571C1630.56 663.102 1637.34 673.703 1634.87 684.24Z" fill="#C4C4C4"/>
<path fill-rule="evenodd" clip-rule="evenodd" d="M1458.4 643.931C1460.96 632.982 1471.78 626.152 1482.58 628.641L1482.01 631.075L1505.47 633.731L1483.27 625.72L1482.7 628.154C1471.62 625.601 1460.53 632.605 1457.92 643.817C1455.29 655.048 1462.15 666.259 1473.25 668.851L1581.25 694.08L1581.37 693.593L1473.37 668.364C1462.54 665.836 1455.84 654.899 1458.4 643.931ZM1634.87 684.24C1632.42 694.758 1621.69 701.257 1610.87 698.765L1611.42 696.432L1587.99 693.675L1610.22 701.584L1610.76 699.252C1621.83 701.804 1632.84 695.152 1635.36 684.354C1637.89 673.536 1630.94 662.675 1619.85 660.085L1511.84 634.855L1511.73 635.342L1619.73 660.571C1630.56 663.102 1637.34 673.703 1634.87 684.24Z" fill="url(#paint2_linear)"/>
<path fill-rule="evenodd" clip-rule="evenodd" d="M775.21 179.43L786.072 178.644L776.888 172.111L776.005 175.961L386.558 88.7041L386.423 89.1828L775.894 176.445L775.21 179.43Z" fill="url(#paint3_linear)"/>
<path fill-rule="evenodd" clip-rule="evenodd" d="M1089.35 433.792L1105.99 441.286L1095.44 426.474L1092.96 429.455L815.412 192.144L815.076 192.515L1092.64 429.839L1089.35 433.792Z" fill="url(#paint4_linear)"/>
<path fill-rule="evenodd" clip-rule="evenodd" d="M1427.61 620.496L1444.64 624.994L1432.82 611.92L1430.26 616.124L1141.21 458.911L1140.97 459.349L1430 616.552L1427.61 620.496Z" fill="url(#paint5_linear)"/>
<path d="M1536.04 654.342C1536.65 654.677 1537.11 655.131 1537.42 655.704C1537.73 656.268 1537.81 656.887 1537.66 657.562C1537.51 658.218 1537.24 658.749 1536.82 659.156C1536.41 659.562 1535.91 659.832 1535.34 659.964C1534.77 660.097 1534.17 660.095 1533.55 659.96C1532.93 659.824 1532.39 659.577 1531.92 659.217C1531.46 658.857 1531.12 658.406 1530.91 657.864C1530.71 657.322 1530.68 656.723 1530.82 656.067L1532.69 656.476C1532.61 656.877 1532.67 657.225 1532.88 657.52C1533.1 657.808 1533.46 658.006 1533.95 658.113C1534.44 658.219 1534.84 658.182 1535.15 658.003C1535.48 657.826 1535.68 657.541 1535.77 657.149C1535.86 656.757 1535.79 656.412 1535.57 656.116C1535.35 655.821 1535.01 655.62 1534.52 655.515L1533.5 655.291L1533.77 654.046L1536.01 652.114L1532.25 651.292L1532.64 649.528L1538.65 650.843L1538.31 652.402L1536.04 654.342ZM1542.69 655.38C1543.3 655.514 1543.83 655.758 1544.28 656.114C1544.74 656.463 1545.06 656.906 1545.25 657.444C1545.45 657.984 1545.47 658.582 1545.33 659.239C1545.19 659.895 1544.91 660.427 1544.49 660.833C1544.08 661.239 1543.59 661.509 1543.01 661.641C1542.44 661.774 1541.84 661.772 1541.22 661.637C1540.6 661.501 1540.06 661.254 1539.59 660.894C1539.13 660.534 1538.79 660.083 1538.59 659.541C1538.38 658.999 1538.35 658.4 1538.49 657.744L1540.36 658.153C1540.28 658.545 1540.35 658.89 1540.57 659.187C1540.79 659.484 1541.14 659.685 1541.63 659.79C1542.11 659.896 1542.51 659.859 1542.83 659.68C1543.15 659.503 1543.36 659.218 1543.44 658.826C1543.53 658.434 1543.46 658.089 1543.24 657.793C1543.03 657.498 1542.68 657.297 1542.19 657.192L1539.21 656.54L1540.76 651.303L1546.33 652.52L1545.94 654.285L1542.12 653.45L1541.62 655.147L1542.69 655.38ZM1549.21 663.383C1548.41 663.209 1547.77 662.853 1547.28 662.316C1546.79 661.771 1546.48 661.091 1546.35 660.278C1546.21 659.455 1546.25 658.552 1546.47 657.567C1546.68 656.582 1547.02 655.749 1547.49 655.067C1547.95 654.376 1548.52 653.888 1549.18 653.603C1549.86 653.311 1550.59 653.252 1551.38 653.426C1552.19 653.601 1552.83 653.961 1553.31 654.506C1553.8 655.042 1554.11 655.721 1554.24 656.544C1554.38 657.357 1554.34 658.256 1554.13 659.241C1553.91 660.226 1553.57 661.064 1553.1 661.755C1552.64 662.437 1552.07 662.925 1551.41 663.219C1550.74 663.503 1550.01 663.558 1549.21 663.383ZM1549.61 661.536C1550.25 661.676 1550.79 661.512 1551.24 661.046C1551.69 660.582 1552.03 659.844 1552.25 658.832C1552.48 657.81 1552.48 656.994 1552.26 656.382C1552.05 655.772 1551.62 655.398 1550.98 655.258C1550.35 655.119 1549.8 655.282 1549.36 655.748C1548.91 656.215 1548.58 656.958 1548.35 657.98C1548.13 659.001 1548.12 659.816 1548.34 660.426C1548.55 661.027 1548.97 661.397 1549.61 661.536ZM1557.82 665.266C1557.03 665.092 1556.39 664.737 1555.89 664.199C1555.41 663.654 1555.1 662.975 1554.96 662.161C1554.83 661.339 1554.87 660.435 1555.08 659.45C1555.3 658.465 1555.64 657.632 1556.1 656.95C1556.57 656.259 1557.13 655.771 1557.8 655.487C1558.47 655.195 1559.21 655.135 1560 655.309C1560.8 655.484 1561.44 655.844 1561.93 656.389C1562.41 656.925 1562.72 657.605 1562.86 658.427C1562.99 659.241 1562.96 660.14 1562.74 661.124C1562.53 662.109 1562.18 662.947 1561.72 663.638C1561.25 664.32 1560.69 664.808 1560.02 665.102C1559.36 665.386 1558.63 665.441 1557.82 665.266ZM1558.23 663.419C1558.86 663.559 1559.41 663.396 1559.85 662.929C1560.31 662.465 1560.65 661.727 1560.87 660.715C1561.09 659.694 1561.09 658.877 1560.87 658.265C1560.66 657.656 1560.24 657.281 1559.6 657.142C1558.96 657.002 1558.42 657.165 1557.97 657.632C1557.53 658.098 1557.19 658.842 1556.97 659.863C1556.75 660.884 1556.74 661.699 1556.95 662.309C1557.16 662.91 1557.59 663.28 1558.23 663.419Z" fill="#100554"/>
<path d="M1478.13 675.313L1476.06 684.894L1474.79 684.62L1476.57 676.367L1473.95 677.136L1474.24 675.808L1476.85 675.039L1478.13 675.313ZM1482.99 676.361L1480.93 685.941L1479.66 685.667L1481.43 677.414L1478.82 678.183L1479.1 676.856L1481.72 676.087L1482.99 676.361ZM1490.28 677.929L1490.04 679.065L1484.73 686.759L1483.4 686.473L1488.67 678.842L1484.04 677.846L1484.3 676.642L1490.28 677.929ZM1492.86 681.348C1492.44 681.26 1492.1 681.084 1491.81 680.822C1491.52 680.56 1491.32 680.248 1491.19 679.888C1491.08 679.52 1491.07 679.144 1491.15 678.761C1491.23 678.369 1491.4 678.033 1491.65 677.752C1491.92 677.465 1492.23 677.266 1492.6 677.154C1492.97 677.033 1493.36 677.017 1493.77 677.105C1494.18 677.194 1494.53 677.369 1494.82 677.631C1495.1 677.884 1495.31 678.195 1495.42 678.563C1495.54 678.923 1495.56 679.3 1495.47 679.692C1495.39 680.075 1495.22 680.411 1494.97 680.701C1494.72 680.981 1494.4 681.18 1494.03 681.299C1493.66 681.42 1493.27 681.436 1492.86 681.348ZM1493.08 680.321C1493.4 680.39 1493.68 680.341 1493.92 680.175C1494.17 680.008 1494.33 679.77 1494.39 679.459C1494.46 679.149 1494.42 678.867 1494.26 678.614C1494.1 678.361 1493.87 678.2 1493.55 678.132C1493.23 678.063 1492.95 678.112 1492.7 678.279C1492.45 678.445 1492.3 678.684 1492.23 678.994C1492.16 679.304 1492.21 679.586 1492.36 679.839C1492.52 680.092 1492.76 680.253 1493.08 680.321Z" fill="#100554"/>
<path d="M363.32 70.7338C363.705 70.0672 364.668 70.0672 365.053 70.7338L375.878 89.4838C376.263 90.1505 375.782 90.9838 375.012 90.9838H353.361C352.591 90.9838 352.11 90.1505 352.495 89.4838L363.32 70.7338Z" fill="url(#paint6_linear)"/>
<path d="M797.634 169.5C798.019 168.833 798.981 168.833 799.366 169.5L810.191 188.25C810.576 188.917 810.095 189.75 809.325 189.75H787.675C786.905 189.75 786.424 188.917 786.809 188.25L797.634 169.5Z" fill="url(#paint7_linear)"/>
<path d="M1119.63 436.5C1120.02 435.833 1120.98 435.833 1121.37 436.5L1132.19 455.25C1132.58 455.917 1132.1 456.75 1131.33 456.75H1109.67C1108.9 456.75 1108.42 455.917 1108.81 455.25L1119.63 436.5Z" fill="url(#paint8_linear)"/>
<path d="M1461.22 619C1461.6 618.325 1462.57 618.325 1462.96 619L1473.74 637.976C1474.12 638.642 1473.64 639.47 1472.87 639.47H1451.31C1450.54 639.47 1450.06 638.642 1450.44 637.976L1461.22 619Z" fill="url(#paint9_linear)"/>
<defs>
<linearGradient id="paint0_linear" x1="211.097" y1="-90.4578" x2="401.382" y2="-33.5137" gradientUnits="userSpaceOnUse">
<stop stop-color="#100554"/>
<stop offset="1" stop-color="#2D4BB3"/>
</linearGradient>
<linearGradient id="paint1_linear" x1="30.0194" y1="80.1599" x2="215.937" y2="-88.0909" gradientUnits="userSpaceOnUse">
<stop stop-color="#100554"/>
<stop offset="1" stop-color="#2D4BB3"/>
</linearGradient>
<linearGradient id="paint2_linear" x1="1461.28" y1="666.794" x2="1543.02" y2="570.092" gradientUnits="userSpaceOnUse">
<stop stop-color="#100554"/>
<stop offset="1" stop-color="#2D4BB3"/>
</linearGradient>
<linearGradient id="paint3_linear" x1="696.685" y1="90.9134" x2="815.553" y2="145.703" gradientUnits="userSpaceOnUse">
<stop stop-color="#100554"/>
<stop offset="1" stop-color="#2D4BB3"/>
</linearGradient>
<linearGradient id="paint4_linear" x1="854.486" y1="266.145" x2="1028.53" y2="235.231" gradientUnits="userSpaceOnUse">
<stop stop-color="#100554"/>
<stop offset="1" stop-color="#2D4BB3"/>
</linearGradient>
<linearGradient id="paint5_linear" x1="1273.58" y1="459.306" x2="1358.7" y2="420.141" gradientUnits="userSpaceOnUse">
<stop stop-color="#100554"/>
<stop offset="1" stop-color="#2D4BB3"/>
</linearGradient>
<linearGradient id="paint6_linear" x1="349.687" y1="107.555" x2="377.651" y2="64.0553" gradientUnits="userSpaceOnUse">
<stop stop-color="#100554"/>
<stop offset="1" stop-color="#2D4BB3"/>
</linearGradient>
<linearGradient id="paint7_linear" x1="784" y1="206.321" x2="811.964" y2="162.821" gradientUnits="userSpaceOnUse">
<stop stop-color="#100554"/>
<stop offset="1" stop-color="#2D4BB3"/>
</linearGradient>
<linearGradient id="paint8_linear" x1="1106" y1="473.321" x2="1133.96" y2="429.821" gradientUnits="userSpaceOnUse">
<stop stop-color="#100554"/>
<stop offset="1" stop-color="#2D4BB3"/>
</linearGradient>
<linearGradient id="paint9_linear" x1="1563.12" y1="-52.6573" x2="1591.6" y2="-96.2427" gradientUnits="userSpaceOnUse">
<stop stop-color="#100554"/>
<stop offset="1" stop-color="#2D4BB3"/>
</linearGradient>
</defs>
</svg>
