<svg width="332" height="373" viewBox="0 0 332 373" fill="none" xmlns="http://www.w3.org/2000/svg">
<path fill-rule="evenodd" clip-rule="evenodd" d="M84.5254 59.83L89.153 61.6387L86.5398 57.763L85.5837 58.7441L13.7367 0.978749L13.4031 1.35117L85.2336 59.1033L84.5254 59.83Z" fill="url(#paint0_linear)"/>
<path d="M44.9086 30.4381C45.0855 30.6002 45.2082 30.7832 45.2766 30.987C45.3472 31.1884 45.3601 31.3918 45.3153 31.5975C45.2727 31.8006 45.1749 31.988 45.0219 32.1597C44.8645 32.3364 44.6838 32.459 44.48 32.5274C44.2784 32.5933 44.0711 32.6005 43.858 32.5491C43.6449 32.4976 43.4463 32.3898 43.2621 32.2257C43.0779 32.0616 42.9481 31.8767 42.8725 31.6709C42.7993 31.4674 42.784 31.2617 42.8263 31.0538C42.8708 30.8435 42.9718 30.65 43.1293 30.4733C43.3111 30.2692 43.5185 30.1392 43.7513 30.0833L45.6595 29.5803L46.2493 30.1059L44.9086 30.4381ZM43.6945 31.7404C43.819 31.8513 43.9566 31.9048 44.1075 31.9008C44.2608 31.899 44.3952 31.8334 44.5105 31.704C44.6236 31.5771 44.6722 31.4374 44.6563 31.2848C44.6429 31.1345 44.574 31.0039 44.4496 30.893C44.3252 30.7821 44.1875 30.7287 44.0366 30.7327C43.888 30.7341 43.756 30.7996 43.6407 30.929C43.5254 31.0584 43.4744 31.1983 43.4878 31.3486C43.5012 31.4989 43.5701 31.6295 43.6945 31.7404ZM45.4711 34.194C45.2545 34.0011 45.1165 33.7777 45.0571 33.5238C45.0023 33.2696 45.0247 33.0039 45.1245 32.7266C45.2264 32.4469 45.3971 32.1726 45.6366 31.9038C45.8761 31.6351 46.1278 31.4352 46.3918 31.3043C46.658 31.1709 46.9194 31.1181 47.1759 31.1458C47.4372 31.1733 47.6761 31.2835 47.8926 31.4764C48.1116 31.6715 48.2485 31.8962 48.3033 32.1504C48.3603 32.4021 48.3378 32.6678 48.2359 32.9475C48.1362 33.2248 47.9666 33.4978 47.7271 33.7666C47.4876 34.0354 47.2348 34.2364 46.9686 34.3698C46.7046 34.5007 46.4432 34.5535 46.1844 34.5283C45.9278 34.5006 45.6901 34.3892 45.4711 34.194ZM45.9201 33.6901C46.0943 33.8453 46.2916 33.8894 46.5121 33.8224C46.735 33.7576 46.9695 33.5871 47.2157 33.3109C47.464 33.0321 47.6076 32.7783 47.6463 32.5495C47.6876 32.3228 47.6211 32.1318 47.4469 31.9766C47.2727 31.8214 47.0754 31.7773 46.8549 31.8443C46.6345 31.9113 46.4001 32.0841 46.1518 32.3629C45.9034 32.6416 45.7586 32.8943 45.7173 33.121C45.6783 33.3451 45.7459 33.5348 45.9201 33.6901ZM47.8224 36.2892C47.6059 36.0963 47.4679 35.8729 47.4084 35.619C47.3536 35.3648 47.3761 35.0991 47.4758 34.8218C47.5778 34.5421 47.7485 34.2678 47.988 33.999C48.2275 33.7303 48.4792 33.5304 48.7432 33.3995C49.0093 33.2662 49.2707 33.2133 49.5273 33.241C49.7886 33.2685 50.0275 33.3787 50.244 33.5716C50.463 33.7667 50.5999 33.9914 50.6547 34.2456C50.7117 34.4973 50.6892 34.763 50.5873 35.0427C50.4876 35.32 50.318 35.593 50.0785 35.8618C49.839 36.1306 49.5861 36.3316 49.3199 36.465C49.056 36.5959 48.7946 36.6488 48.5358 36.6235C48.2792 36.5958 48.0414 36.4844 47.8224 36.2892ZM48.2715 35.7853C48.4457 35.9405 48.643 35.9846 48.8634 35.9176C49.0863 35.8528 49.3209 35.6823 49.567 35.4061C49.8154 35.1273 49.959 34.8735 49.9977 34.6447C50.039 34.418 49.9725 34.227 49.7983 34.0718C49.6241 33.9166 49.4267 33.8725 49.2063 33.9395C48.9859 34.0065 48.7515 34.1793 48.5031 34.4581C48.2548 34.7368 48.1099 34.9895 48.0687 35.2162C48.0297 35.4403 48.0973 35.63 48.2715 35.7853ZM50.1738 38.3844C49.9573 38.1915 49.8193 37.9681 49.7598 37.7142C49.705 37.46 49.7275 37.1943 49.8272 36.917C49.9291 36.6373 50.0998 36.363 50.3393 36.0942C50.5788 35.8255 50.8306 35.6256 51.0945 35.4947C51.3607 35.3614 51.6221 35.3085 51.8787 35.3362C52.1399 35.3637 52.3788 35.4739 52.5954 35.6668C52.8144 35.8619 52.9513 36.0866 53.006 36.3408C53.063 36.5925 53.0406 36.8582 52.9386 37.138C52.8389 37.4152 52.6693 37.6882 52.4298 37.957C52.1903 38.2258 51.9375 38.4269 51.6713 38.5602C51.4073 38.6911 51.146 38.744 50.8872 38.7187C50.6306 38.691 50.3928 38.5796 50.1738 38.3844ZM50.6228 37.8805C50.797 38.0357 50.9944 38.0798 51.2148 38.0128C51.4377 37.948 51.6722 37.7775 51.9184 37.5013C52.1668 37.2226 52.3103 36.9687 52.3491 36.7399C52.3903 36.5132 52.3238 36.3223 52.1496 36.167C51.9754 36.0118 51.7781 35.9677 51.5577 36.0347C51.3373 36.1017 51.1029 36.2745 50.8545 36.5533C50.6061 36.832 50.4613 37.0847 50.4201 37.3114C50.381 37.5356 50.4486 37.7253 50.6228 37.8805Z" fill="#100554"/>
<path d="M49.0338 26.7705L51.1765 26.6385C51.4645 26.6219 51.7089 26.5852 51.9096 26.5283C52.116 26.4711 52.279 26.3753 52.3988 26.2409C52.577 26.0408 52.6527 25.8296 52.6257 25.6074C52.6044 25.3848 52.5072 25.1963 52.3339 25.042C52.1398 24.869 51.9335 24.7789 51.7149 24.7717C51.4963 24.7644 51.2913 24.8683 51.0997 25.0833L50.7861 24.8039C50.967 24.6008 51.1649 24.469 51.3795 24.4085C51.5998 24.3476 51.8152 24.3494 52.0258 24.4138C52.239 24.4752 52.4322 24.583 52.6054 24.7374C52.7666 24.8811 52.8857 25.0541 52.9625 25.2565C53.045 25.4586 53.0671 25.6712 53.029 25.8944C52.9909 26.1175 52.8853 26.3262 52.7123 26.5203C52.55 26.7025 52.3436 26.8319 52.093 26.9087C51.8424 26.9855 51.5421 27.0339 51.1919 27.0541L49.5017 27.1472L51.0472 28.5243L50.7757 28.829L48.7823 27.0527L49.0338 26.7705ZM54.9155 26.8923L52.1214 30.028L51.8078 29.7486L54.2946 26.9578L53.1354 26.6803L53.4428 26.3354L54.6019 26.6128L54.9155 26.8923ZM53.1519 30.2229L53.555 30.5822L53.1958 30.9854L52.7926 30.6261L53.1519 30.2229ZM56.4948 30.3086C56.6949 30.4869 56.8355 30.6898 56.9166 30.9175C57.0007 31.1478 57.017 31.382 56.9656 31.6201C56.9171 31.8609 56.8037 32.0813 56.6254 32.2814C56.4471 32.4815 56.2412 32.6194 56.0076 32.6952C55.7769 32.7737 55.5424 32.7844 55.304 32.7273C55.0685 32.6728 54.8507 32.5565 54.6507 32.3782C54.4506 32.1999 54.3085 31.9956 54.2244 31.7653C54.1433 31.5376 54.1269 31.3034 54.1754 31.0627C54.2268 30.8245 54.3417 30.6054 54.52 30.4054C54.7302 30.1694 54.9807 30.0176 55.2715 29.9498L57.6584 29.3364L58.0123 29.6517L56.22 30.1119C56.3166 30.1659 56.4082 30.2314 56.4948 30.3086ZM54.9221 32.0736C55.1431 32.2705 55.3806 32.3616 55.6348 32.347C55.8919 32.335 56.1176 32.22 56.3119 32.002C56.5061 31.784 56.5944 31.5466 56.5768 31.2898C56.5622 31.0357 56.4443 30.8101 56.2234 30.6132C56.0024 30.4163 55.7633 30.3238 55.5062 30.3358C55.252 30.3504 55.0278 30.4668 54.8336 30.6848C54.6393 30.9028 54.5495 31.1388 54.5642 31.393C54.5818 31.6498 54.7011 31.8766 54.9221 32.0736Z" fill="#100554"/>
<path fill-rule="evenodd" clip-rule="evenodd" d="M84.5982 73.6643L86.9038 69.2632L82.7647 71.4353L83.635 72.4933L18.3352 137.568L18.6687 137.941L83.9536 72.8807L84.5982 73.6643Z" fill="url(#paint1_linear)"/>
<path d="M39.9243 121.369C40.0904 121.195 40.2762 121.077 40.4816 121.013C40.6845 120.947 40.8882 120.939 41.0927 120.989C41.2948 121.036 41.4799 121.138 41.6481 121.295C41.8211 121.456 41.9394 121.64 42.0031 121.845C42.0644 122.048 42.0668 122.256 42.0104 122.468C41.9541 122.679 41.8417 122.876 41.6734 123.056C41.5051 123.236 41.3172 123.362 41.1098 123.433C40.9046 123.501 40.6986 123.512 40.4918 123.464C40.2826 123.415 40.0914 123.31 39.9184 123.148C39.7186 122.962 39.5934 122.751 39.5429 122.517L39.084 120.598L39.6231 120.02L39.9243 121.369ZM41.1982 122.612C41.312 122.49 41.3686 122.354 41.3681 122.203C41.3699 122.05 41.3074 121.914 41.1807 121.796C41.0564 121.68 40.9178 121.628 40.765 121.64C40.6144 121.65 40.4822 121.716 40.3685 121.838C40.2548 121.96 40.1982 122.096 40.1986 122.247C40.1967 122.396 40.2591 122.529 40.3858 122.647C40.5125 122.766 40.6512 122.82 40.8018 122.81C40.9524 122.8 41.0845 122.734 41.1982 122.612ZM43.6922 120.893C43.4943 121.105 43.2678 121.238 43.0125 121.291C42.7572 121.34 42.492 121.312 42.2172 121.206C41.9398 121.097 41.6696 120.92 41.4064 120.675C41.1432 120.429 40.9493 120.173 40.8245 119.906C40.6973 119.637 40.6505 119.374 40.6841 119.118C40.7176 118.858 40.8333 118.621 41.0311 118.409C41.2313 118.195 41.459 118.063 41.7144 118.014C41.9674 117.963 42.2325 117.992 42.5098 118.1C42.7847 118.206 43.0537 118.382 43.3169 118.628C43.5801 118.873 43.7753 119.131 43.9025 119.4C44.0272 119.667 44.074 119.929 44.0428 120.187C44.0092 120.443 43.8923 120.678 43.6922 120.893ZM43.1987 120.432C43.3579 120.262 43.4066 120.065 43.3447 119.844C43.2851 119.619 43.12 119.381 42.8495 119.128C42.5766 118.874 42.3262 118.724 42.0982 118.68C41.8726 118.634 41.6801 118.696 41.5209 118.866C41.3617 119.037 41.3131 119.233 41.375 119.455C41.4369 119.677 41.6043 119.915 41.8772 120.17C42.1501 120.425 42.3994 120.575 42.6251 120.622C42.8483 120.666 43.0395 120.603 43.1987 120.432ZM45.8411 118.59C45.6432 118.802 45.4167 118.935 45.1614 118.989C44.9061 119.038 44.6409 119.009 44.366 118.903C44.0887 118.795 43.8185 118.618 43.5553 118.372C43.2921 118.127 43.0982 117.87 42.9734 117.603C42.8462 117.334 42.7994 117.072 42.833 116.816C42.8665 116.555 42.9822 116.319 43.18 116.107C43.3802 115.892 43.6079 115.761 43.8633 115.712C44.1163 115.661 44.3814 115.689 44.6587 115.798C44.9336 115.904 45.2026 116.08 45.4658 116.325C45.729 116.571 45.9242 116.828 46.0514 117.097C46.1761 117.364 46.2229 117.627 46.1917 117.885C46.1581 118.141 46.0412 118.376 45.8411 118.59ZM45.3476 118.13C45.5068 117.959 45.5555 117.763 45.4936 117.541C45.434 117.317 45.2689 117.078 44.9984 116.826C44.7255 116.571 44.475 116.422 44.2471 116.378C44.0215 116.331 43.829 116.393 43.6698 116.564C43.5106 116.735 43.462 116.931 43.5239 117.153C43.5858 117.375 43.7532 117.613 44.0261 117.868C44.299 118.122 44.5483 118.273 44.774 118.319C44.9972 118.364 45.1884 118.3 45.3476 118.13ZM47.99 116.288C47.7921 116.5 47.5656 116.633 47.3103 116.686C47.0549 116.735 46.7898 116.707 46.5149 116.601C46.2376 116.492 45.9674 116.315 45.7042 116.07C45.441 115.824 45.247 115.568 45.1223 115.301C44.9951 115.032 44.9483 114.769 44.9819 114.513C45.0154 114.253 45.131 114.016 45.3289 113.804C45.5291 113.59 45.7568 113.458 46.0122 113.409C46.2652 113.358 46.5303 113.387 46.8076 113.495C47.0825 113.601 47.3515 113.777 47.6147 114.023C47.8779 114.268 48.0731 114.526 48.2003 114.795C48.325 115.062 48.3718 115.324 48.3406 115.583C48.307 115.838 48.1901 116.074 47.99 116.288ZM47.4965 115.828C47.6557 115.657 47.7044 115.461 47.6425 115.239C47.5828 115.014 47.4178 114.776 47.1473 114.524C46.8744 114.269 46.6239 114.119 46.396 114.075C46.1704 114.029 45.9779 114.091 45.8187 114.262C45.6595 114.432 45.6109 114.628 45.6728 114.85C45.7347 115.072 45.9021 115.311 46.175 115.565C46.4479 115.82 46.6972 115.971 46.9229 116.017C47.1461 116.061 47.3373 115.998 47.4965 115.828Z" fill="#100554"/>
<path d="M35.921 117.622L35.8385 115.477C35.8286 115.189 35.7975 114.944 35.7452 114.742C35.6928 114.534 35.6008 114.369 35.4692 114.246C35.2733 114.063 35.0639 113.983 34.8411 114.005C34.618 114.021 34.4274 114.114 34.2691 114.283C34.0917 114.473 33.9968 114.678 33.9846 114.896C33.9723 115.114 34.0714 115.322 34.282 115.518L33.9954 115.825C33.7965 115.64 33.6693 115.439 33.6138 115.223C33.558 115.001 33.5647 114.786 33.6339 114.577C33.7002 114.365 33.8125 114.175 33.9708 114.005C34.1182 113.847 34.2939 113.732 34.498 113.66C34.702 113.582 34.915 113.565 35.1373 113.608C35.3595 113.651 35.5657 113.762 35.7558 113.939C35.9341 114.106 36.0588 114.315 36.1298 114.567C36.2007 114.82 36.2423 115.121 36.2543 115.471L36.3084 117.163L37.7208 115.65L38.0191 115.928L36.1973 117.88L35.921 117.622ZM39.7625 112.829L39.3941 113.224L40.0082 113.797L39.7216 114.104L39.1075 113.531L37.5928 115.154L37.3033 114.884L36.2008 111.721L36.5161 111.383L37.6185 114.546L38.818 113.261L37.8793 112.385L38.1659 112.078L39.1046 112.954L39.473 112.559L39.7625 112.829ZM40.3311 112.66L40.6996 112.265L41.0943 112.634L40.7259 113.028L40.3311 112.66ZM40.8047 109.347C41.0661 109.132 41.3495 109.019 41.6548 109.008C41.9599 108.992 42.2411 109.104 42.4984 109.344C42.6943 109.527 42.8189 109.734 42.8721 109.964C42.9251 110.188 42.916 110.415 42.8446 110.644C42.7731 110.867 42.6513 111.071 42.4794 111.255C42.3075 111.439 42.1112 111.576 41.8908 111.666C41.6701 111.75 41.4445 111.775 41.2141 111.74C40.9835 111.7 40.7702 111.589 40.5743 111.406L40.8608 111.099C41.0655 111.29 41.2877 111.371 41.5273 111.343C41.7667 111.309 41.9846 111.187 42.1811 110.977C42.3776 110.766 42.4831 110.542 42.4975 110.304C42.5118 110.06 42.4165 109.842 42.2118 109.651C42.0071 109.46 41.7851 109.381 41.5457 109.415C41.3061 109.443 41.088 109.563 40.8915 109.773L40.8872 109.769L40.8874 109.777L40.6868 109.992L40.4851 109.804L40.1535 108.067L38.8066 109.51L38.5171 109.239L40.1956 107.441L40.4851 107.711L40.8047 109.347Z" fill="#100554"/>
<path d="M102.567 76.2983L98.8928 80.5247L98.3312 80.0366L101.496 76.3958L99.9755 76.0599L100.485 75.4742L102.005 75.8102L102.567 76.2983ZM103.425 80.097C103.694 80.4373 103.839 80.8033 103.859 81.1951C103.883 81.5904 103.748 81.9571 103.454 82.2952C103.216 82.5689 102.943 82.7487 102.635 82.8344C102.327 82.9202 102.017 82.9192 101.705 82.8314C101.393 82.7436 101.108 82.5878 100.85 82.3639C100.592 82.1399 100.398 81.8794 100.268 81.5823C100.138 81.2852 100.093 80.9783 100.136 80.6616C100.178 80.3449 100.318 80.0496 100.556 79.7759L101.111 80.2588C100.898 80.5043 100.814 80.7672 100.86 81.0476C100.906 81.3279 101.062 81.5835 101.328 81.8144C101.589 82.0419 101.862 82.1589 102.146 82.1655C102.43 82.1721 102.679 82.0526 102.892 81.8071C103.106 81.5616 103.189 81.2986 103.143 81.0183C103.101 80.734 102.949 80.4781 102.687 80.2507L102.331 79.941L102.651 79.5727L104.739 79.1091L102.862 77.4768L103.318 76.9516L105.854 79.1559L105.424 79.651L103.425 80.097ZM107.926 80.9573L104.252 85.1837L103.691 84.6956L106.856 81.0549L105.335 80.7189L105.844 80.1332L107.365 80.4692L107.926 80.9573ZM108.469 83.5489C108.288 83.3915 108.161 83.2075 108.09 82.997C108.018 82.7865 108.002 82.5741 108.04 82.3597C108.085 82.1448 108.181 81.9529 108.328 81.7838C108.479 81.6107 108.655 81.4887 108.858 81.4178C109.069 81.3464 109.282 81.3334 109.497 81.3789C109.715 81.4203 109.915 81.5198 110.096 81.6772C110.277 81.8347 110.403 82.0187 110.475 82.2291C110.55 82.4356 110.564 82.6463 110.519 82.8612C110.481 83.0755 110.387 83.2692 110.236 83.4423C110.089 83.6114 109.913 83.7334 109.706 83.8083C109.503 83.8792 109.29 83.8922 109.068 83.8472C108.85 83.8058 108.65 83.7064 108.469 83.5489ZM108.862 83.0961C109.003 83.2185 109.158 83.272 109.327 83.2564C109.496 83.2408 109.64 83.1645 109.759 83.0277C109.878 82.8908 109.934 82.7376 109.926 82.5681C109.918 82.3985 109.843 82.2525 109.702 82.1301C109.561 82.0076 109.406 81.9542 109.237 81.9698C109.068 81.9854 108.924 82.0616 108.805 82.1984C108.686 82.3353 108.631 82.4885 108.639 82.6581C108.647 82.8276 108.722 82.9736 108.862 83.0961Z" fill="#100554"/>
<path d="M129.267 99.2079C129.446 99.3679 129.571 99.5493 129.642 99.7523C129.715 99.9528 129.73 100.156 129.688 100.362C129.648 100.566 129.553 100.754 129.402 100.928C129.246 101.107 129.067 101.231 128.864 101.302C128.663 101.371 128.456 101.38 128.243 101.332C128.029 101.283 127.829 101.177 127.643 101.016C127.457 100.854 127.324 100.67 127.246 100.466C127.171 100.263 127.153 100.057 127.193 99.8492C127.235 99.6383 127.333 99.4436 127.488 99.2649C127.668 99.0587 127.874 98.9261 128.106 98.8674L130.008 98.341L130.604 98.8593L129.267 99.2079ZM128.069 100.525C128.195 100.634 128.333 100.686 128.484 100.68C128.637 100.677 128.771 100.609 128.885 100.479C128.996 100.35 129.043 100.21 129.025 100.058C129.01 99.9075 128.94 99.7778 128.814 99.6684C128.688 99.5591 128.55 99.5073 128.399 99.5132C128.25 99.5165 128.119 99.5835 128.005 99.7143C127.892 99.8452 127.842 99.9856 127.858 100.136C127.873 100.286 127.943 100.416 128.069 100.525ZM129.876 102.957C129.657 102.766 129.516 102.545 129.454 102.292C129.396 102.038 129.415 101.772 129.511 101.494C129.61 101.213 129.777 100.936 130.013 100.665C130.249 100.393 130.499 100.19 130.761 100.056C131.025 99.9193 131.286 99.8632 131.543 99.8878C131.805 99.912 132.045 100.019 132.264 100.21C132.485 100.402 132.625 100.625 132.683 100.878C132.743 101.129 132.724 101.395 132.625 101.676C132.529 101.955 132.362 102.23 132.126 102.502C131.89 102.773 131.64 102.977 131.375 103.114C131.113 103.248 130.852 103.304 130.593 103.282C130.336 103.258 130.097 103.149 129.876 102.957ZM130.319 102.447C130.495 102.6 130.692 102.642 130.912 102.572C131.134 102.505 131.367 102.331 131.609 102.052C131.854 101.77 131.995 101.515 132.031 101.286C132.069 101.058 132 100.868 131.824 100.715C131.648 100.562 131.45 100.52 131.231 100.59C131.011 100.66 130.779 100.836 130.534 101.117C130.289 101.399 130.147 101.654 130.109 101.881C130.073 102.105 130.142 102.294 130.319 102.447ZM132.253 105.023C132.034 104.833 131.893 104.611 131.83 104.358C131.773 104.104 131.792 103.838 131.888 103.56C131.987 103.279 132.154 103.003 132.39 102.731C132.626 102.459 132.875 102.256 133.138 102.122C133.402 101.985 133.663 101.929 133.92 101.954C134.182 101.978 134.422 102.085 134.641 102.276C134.862 102.468 135.002 102.691 135.06 102.945C135.12 103.196 135.1 103.462 135.002 103.743C134.906 104.021 134.739 104.296 134.503 104.568C134.267 104.839 134.017 105.044 133.752 105.18C133.49 105.314 133.229 105.37 132.97 105.348C132.713 105.324 132.474 105.215 132.253 105.023ZM132.695 104.513C132.872 104.667 133.069 104.708 133.289 104.639C133.511 104.571 133.743 104.398 133.986 104.118C134.231 103.837 134.372 103.581 134.408 103.352C134.446 103.125 134.377 102.934 134.201 102.781C134.025 102.628 133.827 102.587 133.608 102.656C133.388 102.726 133.156 102.902 132.911 103.183C132.666 103.465 132.524 103.72 132.486 103.947C132.449 104.171 132.519 104.36 132.695 104.513ZM134.629 107.089C134.411 106.899 134.27 106.677 134.207 106.424C134.149 106.17 134.169 105.904 134.265 105.626C134.363 105.345 134.531 105.069 134.767 104.797C135.003 104.525 135.252 104.322 135.515 104.188C135.779 104.052 136.04 103.996 136.297 104.02C136.558 104.044 136.799 104.152 137.018 104.342C137.239 104.534 137.379 104.757 137.436 105.011C137.497 105.262 137.477 105.528 137.379 105.809C137.283 106.087 137.116 106.362 136.88 106.634C136.644 106.906 136.394 107.11 136.129 107.246C135.867 107.381 135.606 107.437 135.347 107.415C135.09 107.39 134.851 107.282 134.629 107.089ZM135.072 106.58C135.248 106.733 135.446 106.774 135.666 106.705C135.888 106.637 136.12 106.464 136.363 106.185C136.608 105.903 136.748 105.647 136.784 105.418C136.823 105.191 136.754 105.001 136.578 104.848C136.402 104.695 136.204 104.653 135.984 104.723C135.765 104.792 135.533 104.968 135.288 105.25C135.043 105.531 134.901 105.786 134.863 106.013C134.826 106.238 134.896 106.427 135.072 106.58Z" fill="#100554"/>
<path d="M183.314 187.058C183.373 187.291 183.376 187.511 183.321 187.719C183.27 187.926 183.169 188.103 183.019 188.251C182.872 188.397 182.688 188.501 182.466 188.56C182.237 188.622 182.019 188.625 181.811 188.571C181.606 188.516 181.429 188.408 181.279 188.248C181.129 188.089 181.022 187.89 180.957 187.651C180.893 187.413 180.886 187.187 180.935 186.974C180.986 186.764 181.085 186.583 181.235 186.432C181.387 186.281 181.578 186.174 181.806 186.113C182.07 186.042 182.315 186.046 182.54 186.127L184.412 186.752L184.618 187.514L183.314 187.058ZM181.585 187.482C181.628 187.643 181.714 187.763 181.843 187.843C181.972 187.925 182.12 187.944 182.288 187.899C182.452 187.855 182.569 187.764 182.639 187.628C182.71 187.495 182.724 187.348 182.681 187.187C182.638 187.026 182.552 186.906 182.423 186.827C182.298 186.747 182.152 186.729 181.984 186.774C181.817 186.819 181.698 186.908 181.627 187.041C181.555 187.174 181.542 187.321 181.585 187.482ZM181.727 190.508C181.652 190.228 181.659 189.966 181.748 189.721C181.841 189.478 182.006 189.268 182.241 189.091C182.479 188.913 182.773 188.777 183.12 188.683C183.468 188.589 183.788 188.56 184.08 188.595C184.376 188.629 184.624 188.728 184.823 188.892C185.027 189.058 185.166 189.281 185.242 189.561C185.318 189.845 185.309 190.107 185.216 190.35C185.126 190.592 184.961 190.802 184.723 190.98C184.488 191.157 184.196 191.293 183.849 191.387C183.501 191.48 183.179 191.51 182.884 191.476C182.591 191.441 182.343 191.342 182.141 191.179C181.941 191.015 181.803 190.792 181.727 190.508ZM182.379 190.333C182.44 190.558 182.58 190.703 182.802 190.768C183.024 190.836 183.313 190.821 183.67 190.725C184.031 190.628 184.29 190.494 184.448 190.324C184.607 190.157 184.655 189.961 184.595 189.736C184.534 189.51 184.393 189.365 184.172 189.301C183.951 189.236 183.66 189.252 183.3 189.349C182.939 189.446 182.68 189.578 182.521 189.745C182.365 189.912 182.318 190.107 182.379 190.333ZM182.546 193.549C182.471 193.269 182.478 193.007 182.567 192.762C182.661 192.519 182.825 192.309 183.06 192.132C183.299 191.954 183.592 191.818 183.94 191.724C184.287 191.63 184.607 191.601 184.9 191.636C185.195 191.67 185.443 191.769 185.643 191.933C185.846 192.099 185.986 192.322 186.061 192.602C186.137 192.886 186.129 193.148 186.035 193.391C185.945 193.633 185.781 193.843 185.542 194.021C185.307 194.198 185.016 194.334 184.668 194.428C184.32 194.521 183.999 194.551 183.703 194.517C183.41 194.482 183.163 194.383 182.96 194.22C182.761 194.056 182.623 193.832 182.546 193.549ZM183.198 193.374C183.259 193.599 183.4 193.744 183.621 193.809C183.843 193.877 184.132 193.862 184.49 193.766C184.85 193.669 185.109 193.535 185.267 193.365C185.426 193.198 185.475 193.002 185.414 192.777C185.353 192.551 185.213 192.406 184.991 192.342C184.77 192.277 184.479 192.293 184.119 192.39C183.759 192.487 183.499 192.619 183.34 192.786C183.185 192.953 183.137 193.148 183.198 193.374ZM183.366 196.59C183.29 196.31 183.297 196.048 183.387 195.803C183.48 195.56 183.644 195.35 183.88 195.173C184.118 194.995 184.411 194.859 184.759 194.765C185.106 194.671 185.427 194.642 185.719 194.677C186.015 194.711 186.262 194.81 186.462 194.974C186.665 195.14 186.805 195.363 186.88 195.643C186.957 195.926 186.948 196.189 186.855 196.432C186.765 196.674 186.6 196.884 186.362 197.062C186.126 197.239 185.835 197.375 185.487 197.469C185.14 197.562 184.818 197.592 184.522 197.558C184.23 197.523 183.982 197.424 183.779 197.261C183.58 197.097 183.442 196.873 183.366 196.59ZM184.017 196.415C184.078 196.64 184.219 196.785 184.44 196.85C184.662 196.918 184.952 196.903 185.309 196.807C185.67 196.71 185.929 196.576 186.087 196.406C186.245 196.239 186.294 196.043 186.233 195.818C186.173 195.592 186.032 195.447 185.811 195.383C185.59 195.318 185.299 195.334 184.938 195.431C184.578 195.528 184.318 195.66 184.16 195.827C184.004 195.994 183.957 196.189 184.017 196.415Z" fill="#100554"/>
<path d="M234.592 289.438C234.721 289.621 234.801 289.813 234.833 290.015C234.87 290.217 234.848 290.412 234.768 290.599C234.69 290.789 234.552 290.953 234.356 291.091C234.16 291.229 233.958 291.302 233.751 291.309C233.545 291.317 233.35 291.269 233.166 291.165C232.983 291.062 232.827 290.917 232.696 290.732C232.565 290.547 232.482 290.351 232.446 290.144C232.41 289.936 232.43 289.737 232.507 289.544C232.583 289.352 232.719 289.186 232.916 289.048L233.31 289.608C233.193 289.69 233.128 289.797 233.115 289.929C233.102 290.061 233.146 290.199 233.248 290.343C233.349 290.488 233.464 290.574 233.59 290.603C233.719 290.635 233.841 290.61 233.959 290.527C234.076 290.445 234.141 290.337 234.154 290.206C234.169 290.077 234.126 289.94 234.024 289.796L233.396 288.905L235.066 287.899L236.239 289.562L235.712 289.933L234.908 288.793L234.367 289.12L234.592 289.438ZM236.198 291.717C236.327 291.899 236.407 292.092 236.44 292.293C236.476 292.496 236.455 292.691 236.374 292.878C236.296 293.067 236.159 293.231 235.963 293.37C235.767 293.508 235.565 293.581 235.358 293.588C235.151 293.595 234.956 293.547 234.773 293.444C234.59 293.34 234.433 293.196 234.303 293.011C234.172 292.826 234.089 292.629 234.053 292.422C234.017 292.215 234.037 292.015 234.113 291.823C234.19 291.63 234.326 291.465 234.522 291.327L234.917 291.886C234.8 291.969 234.735 292.076 234.721 292.208C234.708 292.339 234.752 292.477 234.854 292.622C234.956 292.766 235.07 292.853 235.197 292.882C235.325 292.914 235.448 292.888 235.565 292.806C235.682 292.723 235.747 292.616 235.761 292.484C235.776 292.355 235.732 292.219 235.631 292.074L235.003 291.184L236.673 290.177L237.845 291.84L237.318 292.212L236.515 291.072L235.974 291.398L236.198 291.717ZM235.985 295.397C235.818 295.16 235.734 294.911 235.734 294.65C235.738 294.39 235.82 294.136 235.98 293.889C236.143 293.64 236.371 293.411 236.665 293.204C236.96 292.996 237.25 292.859 237.537 292.791C237.826 292.722 238.093 292.729 238.337 292.815C238.585 292.901 238.793 293.062 238.96 293.299C239.129 293.539 239.211 293.789 239.207 294.049C239.205 294.307 239.123 294.561 238.96 294.81C238.8 295.057 238.573 295.285 238.279 295.492C237.985 295.7 237.693 295.838 237.403 295.908C237.117 295.975 236.85 295.967 236.604 295.884C236.36 295.799 236.154 295.636 235.985 295.397ZM236.536 295.008C236.671 295.198 236.853 295.286 237.083 295.271C237.315 295.258 237.582 295.146 237.884 294.932C238.189 294.717 238.387 294.503 238.476 294.288C238.568 294.077 238.547 293.876 238.412 293.685C238.278 293.495 238.095 293.407 237.866 293.422C237.636 293.437 237.368 293.553 237.063 293.768C236.758 293.983 236.56 294.196 236.468 294.407C236.379 294.617 236.402 294.817 236.536 295.008ZM237.799 297.971C237.632 297.734 237.549 297.485 237.548 297.224C237.553 296.964 237.635 296.71 237.795 296.463C237.958 296.214 238.186 295.985 238.48 295.778C238.774 295.57 239.065 295.433 239.352 295.365C239.641 295.296 239.908 295.303 240.151 295.389C240.4 295.475 240.607 295.636 240.774 295.873C240.943 296.113 241.026 296.363 241.021 296.623C241.02 296.881 240.938 297.135 240.775 297.384C240.615 297.631 240.388 297.859 240.094 298.066C239.799 298.274 239.508 298.412 239.218 298.482C238.931 298.549 238.665 298.541 238.418 298.458C238.175 298.373 237.968 298.21 237.799 297.971ZM238.351 297.582C238.486 297.772 238.668 297.86 238.898 297.845C239.129 297.832 239.397 297.72 239.699 297.506C240.004 297.291 240.201 297.077 240.291 296.862C240.383 296.651 240.361 296.45 240.227 296.259C240.092 296.069 239.91 295.981 239.68 295.996C239.45 296.011 239.183 296.127 238.878 296.342C238.573 296.557 238.374 296.77 238.283 296.981C238.194 297.191 238.217 297.391 238.351 297.582Z" fill="#100554"/>
<path d="M302.623 350.406C302.808 350.575 302.929 350.771 302.985 350.996C303.043 351.218 303.018 351.439 302.909 351.661C302.804 351.876 302.662 352.037 302.483 352.142C302.305 352.248 302.111 352.299 301.901 352.296C301.691 352.293 301.484 352.242 301.28 352.142C301.077 352.042 300.91 351.909 300.779 351.745C300.648 351.58 300.57 351.395 300.545 351.19C300.519 350.984 300.56 350.774 300.666 350.558L301.28 350.86C301.216 350.992 301.208 351.118 301.256 351.238C301.309 351.357 301.416 351.457 301.578 351.536C301.737 351.614 301.878 351.635 302.003 351.6C302.131 351.566 302.227 351.485 302.29 351.357C302.353 351.228 302.359 351.103 302.308 350.981C302.259 350.86 302.156 350.761 301.997 350.683L301.66 350.518L301.861 350.11L302.804 349.631L301.57 349.025L301.854 348.446L303.828 349.416L303.577 349.928L302.623 350.406ZM304.841 351.334C305.041 351.433 305.204 351.563 305.329 351.724C305.458 351.884 305.533 352.066 305.552 352.268C305.574 352.472 305.532 352.682 305.427 352.898C305.321 353.113 305.179 353.274 305.001 353.379C304.822 353.485 304.628 353.536 304.418 353.533C304.208 353.53 304.001 353.478 303.798 353.379C303.594 353.279 303.427 353.146 303.296 352.982C303.165 352.817 303.087 352.632 303.062 352.427C303.037 352.221 303.077 352.011 303.183 351.795L303.798 352.097C303.734 352.226 303.729 352.351 303.78 352.473C303.832 352.595 303.937 352.695 304.095 352.773C304.254 352.851 304.396 352.872 304.52 352.837C304.648 352.803 304.744 352.722 304.807 352.593C304.87 352.465 304.876 352.339 304.825 352.218C304.776 352.097 304.673 351.998 304.514 351.92L303.536 351.439L304.519 349.755L306.346 350.653L306.061 351.232L304.809 350.617L304.491 351.162L304.841 351.334ZM306.418 354.666C306.157 354.538 305.965 354.36 305.839 354.131C305.718 353.901 305.669 353.639 305.691 353.345C305.714 353.048 305.805 352.738 305.964 352.415C306.122 352.092 306.311 351.832 306.531 351.635C306.751 351.435 306.989 351.314 307.244 351.272C307.503 351.229 307.763 351.271 308.023 351.399C308.286 351.528 308.478 351.708 308.599 351.938C308.721 352.166 308.771 352.428 308.748 352.724C308.726 353.018 308.635 353.327 308.477 353.65C308.318 353.973 308.128 354.234 307.907 354.434C307.688 354.631 307.451 354.752 307.194 354.797C306.94 354.839 306.681 354.795 306.418 354.666ZM306.715 354.06C306.925 354.163 307.127 354.153 307.321 354.029C307.518 353.907 307.699 353.68 307.862 353.348C308.027 353.013 308.097 352.73 308.073 352.499C308.052 352.269 307.937 352.103 307.727 352C307.518 351.897 307.316 351.908 307.122 352.031C306.927 352.155 306.748 352.384 306.583 352.719C306.418 353.054 306.346 353.337 306.367 353.566C306.39 353.792 306.506 353.957 306.715 354.06ZM309.244 356.055C308.984 355.927 308.791 355.749 308.666 355.52C308.545 355.29 308.495 355.028 308.517 354.734C308.541 354.437 308.632 354.127 308.79 353.804C308.949 353.481 309.138 353.221 309.357 353.024C309.578 352.824 309.816 352.703 310.07 352.661C310.329 352.618 310.589 352.66 310.849 352.788C311.113 352.917 311.305 353.097 311.426 353.327C311.548 353.554 311.597 353.816 311.574 354.113C311.552 354.407 311.462 354.716 311.303 355.039C311.145 355.362 310.955 355.623 310.734 355.823C310.515 356.02 310.277 356.141 310.021 356.186C309.766 356.228 309.507 356.184 309.244 356.055ZM309.542 355.449C309.751 355.552 309.953 355.541 310.148 355.418C310.345 355.296 310.525 355.069 310.689 354.737C310.853 354.402 310.924 354.119 310.9 353.888C310.879 353.658 310.763 353.492 310.554 353.389C310.345 353.286 310.143 353.297 309.948 353.42C309.754 353.544 309.574 353.773 309.41 354.108C309.245 354.443 309.173 354.725 309.194 354.955C309.217 355.181 309.332 355.346 309.542 355.449Z" fill="#100554"/>
<path d="M137.271 93.8366L134.515 97.0064L134.198 96.7309L136.651 93.9098L135.488 93.6466L135.791 93.2979L136.954 93.5611L137.271 93.8366ZM139.67 95.9223L139.41 96.2212L135.719 98.0529L135.389 97.7655L139.08 95.9338L137.463 94.5285L137.723 94.2297L139.67 95.9223ZM137.087 98.5265L137.495 98.8807L137.14 99.2883L136.733 98.934L137.087 98.5265ZM140.431 98.5711C140.633 98.7469 140.776 98.9481 140.86 99.1748C140.947 99.404 140.966 99.638 140.918 99.8767C140.872 100.118 140.761 100.34 140.586 100.542C140.41 100.744 140.206 100.885 139.973 100.964C139.743 101.045 139.509 101.058 139.27 101.004C139.034 100.953 138.814 100.839 138.612 100.663C138.41 100.487 138.265 100.285 138.178 100.056C138.095 99.8289 138.075 99.5949 138.121 99.3535C138.169 99.1148 138.282 98.8943 138.457 98.6921C138.665 98.4536 138.913 98.2987 139.203 98.2274L141.582 97.5847L141.94 97.8956L140.154 98.3778C140.251 98.4306 140.343 98.495 140.431 98.5711ZM138.88 100.355C139.103 100.549 139.342 100.638 139.596 100.62C139.853 100.605 140.077 100.487 140.269 100.267C140.46 100.046 140.546 99.8078 140.525 99.5512C140.507 99.2973 140.387 99.0732 140.163 98.879C139.94 98.6848 139.7 98.5953 139.443 98.6104C139.189 98.6282 138.966 98.7472 138.774 98.9676C138.583 99.188 138.496 99.4251 138.514 99.6791C138.534 99.9356 138.656 100.161 138.88 100.355Z" fill="#100554"/>
<path d="M193.686 186.334L189.662 187.536L189.541 187.133L193.123 186.064L192.282 185.219L192.725 185.087L193.566 185.931L193.686 186.334ZM193.423 190.044C193.12 190.134 192.827 190.132 192.544 190.037L190.19 189.306L190.055 188.851L191.822 189.401C191.768 189.304 191.724 189.2 191.691 189.089C191.614 188.832 191.601 188.584 191.65 188.344C191.7 188.107 191.809 187.899 191.977 187.72C192.146 187.544 192.359 187.418 192.616 187.341C192.872 187.265 193.119 187.254 193.357 187.308C193.596 187.366 193.801 187.48 193.973 187.65C194.146 187.824 194.27 188.039 194.347 188.296C194.424 188.553 194.437 188.799 194.386 189.036C194.337 189.276 194.228 189.484 194.059 189.659C193.892 189.839 193.679 189.967 193.423 190.044ZM192.736 187.744C192.456 187.827 192.256 187.981 192.135 188.205C192.015 188.433 191.997 188.689 192.082 188.972C192.167 189.256 192.321 189.458 192.545 189.579C192.77 189.704 193.023 189.725 193.302 189.641C193.582 189.558 193.782 189.402 193.902 189.174C194.023 188.95 194.041 188.696 193.956 188.413C193.871 188.129 193.716 187.925 193.491 187.8C193.267 187.679 193.015 187.66 192.736 187.744ZM191.107 190.488L191.262 191.006L190.744 191.16L190.59 190.643L191.107 190.488ZM192.623 194.516L192.468 193.999L191.664 194.239L191.543 193.836L192.348 193.596L191.713 191.469L192.092 191.356L195.379 192.002L195.511 192.445L192.225 191.798L192.728 193.483L193.958 193.115L194.078 193.518L192.848 193.885L193.002 194.403L192.623 194.516Z" fill="#100554"/>
<path d="M245.61 287.014L245.293 287.251L241.297 288.256L241.035 287.905L245.031 286.9L243.75 285.183L244.067 284.946L245.61 287.014ZM242.533 289.01L242.856 289.443L242.423 289.766L242.1 289.333L242.533 289.01ZM245.819 290.694C245.865 290.923 245.854 291.142 245.784 291.349C245.719 291.557 245.596 291.729 245.413 291.865C245.208 292.018 244.993 292.099 244.769 292.106C244.551 292.114 244.34 292.062 244.136 291.95C243.935 291.835 243.757 291.673 243.602 291.465C243.446 291.257 243.342 291.04 243.289 290.815C243.239 290.588 243.248 290.369 243.316 290.159C243.389 289.949 243.528 289.768 243.733 289.615C243.916 289.478 244.115 289.407 244.33 289.401C244.551 289.396 244.765 289.449 244.972 289.559C244.946 289.364 244.967 289.178 245.036 289.002C245.107 288.824 245.226 288.673 245.393 288.548C245.595 288.398 245.802 288.318 246.015 288.309C246.228 288.3 246.426 288.347 246.608 288.45C246.795 288.555 246.954 288.694 247.083 288.867C247.212 289.04 247.299 289.23 247.343 289.436C247.393 289.643 247.384 289.848 247.314 290.049C247.245 290.251 247.109 290.427 246.908 290.578C246.741 290.702 246.562 290.773 246.371 290.791C246.183 290.807 245.999 290.774 245.819 290.694ZM246.756 289.111C246.613 288.918 246.442 288.794 246.245 288.736C246.05 288.682 245.849 288.732 245.644 288.885C245.452 289.029 245.352 289.205 245.344 289.416C245.339 289.629 245.406 289.829 245.544 290.015C245.683 290.201 245.855 290.32 246.058 290.373C246.265 290.428 246.464 290.385 246.656 290.241C246.861 290.088 246.965 289.908 246.966 289.703C246.97 289.5 246.9 289.303 246.756 289.111ZM243.929 291.221C244.106 291.458 244.303 291.608 244.519 291.671C244.739 291.732 244.953 291.684 245.162 291.529C245.37 291.373 245.475 291.183 245.476 290.957C245.481 290.729 245.395 290.496 245.217 290.259C245.04 290.022 244.842 289.873 244.622 289.813C244.405 289.75 244.193 289.796 243.985 289.951C243.776 290.107 243.67 290.299 243.665 290.527C243.664 290.752 243.752 290.984 243.929 291.221Z" fill="#100554"/>
<path d="M308.583 343.521C308.812 343.626 309.001 343.77 309.151 343.952C309.306 344.133 309.4 344.339 309.435 344.571C309.475 344.8 309.439 345.037 309.328 345.281C309.216 345.524 309.059 345.708 308.858 345.831C308.661 345.952 308.443 346.015 308.204 346.02C307.969 346.022 307.737 345.971 307.508 345.866C307.279 345.761 307.087 345.618 306.933 345.437C306.783 345.254 306.689 345.048 306.649 344.819C306.614 344.587 306.652 344.35 306.764 344.106L307.146 344.281C307.029 344.536 307.022 344.772 307.124 344.99C307.232 345.207 307.417 345.375 307.678 345.495C307.94 345.615 308.186 345.644 308.417 345.583C308.653 345.519 308.829 345.36 308.946 345.106C309.062 344.851 309.067 344.616 308.959 344.399C308.857 344.181 308.675 344.012 308.413 343.892L307.322 343.392L308.333 341.545L310.433 342.507L310.268 342.867L308.518 342.065L307.896 343.206L308.583 343.521ZM309.538 346.123L310.028 346.348L309.804 346.839L309.313 346.614L309.538 346.123ZM311.711 347.792C311.406 347.652 311.181 347.45 311.038 347.186C310.898 346.924 310.84 346.62 310.862 346.274C310.886 345.924 310.989 345.551 311.17 345.155C311.352 344.759 311.567 344.439 311.814 344.196C312.064 343.949 312.333 343.794 312.623 343.728C312.916 343.665 313.215 343.703 313.521 343.843C313.826 343.983 314.049 344.184 314.188 344.446C314.331 344.709 314.391 345.016 314.367 345.366C314.345 345.712 314.243 346.083 314.061 346.48C313.88 346.876 313.664 347.197 313.415 347.444C313.167 347.687 312.897 347.84 312.603 347.904C312.314 347.969 312.016 347.932 311.711 347.792ZM311.881 347.421C312.216 347.574 312.54 347.553 312.853 347.358C313.171 347.165 313.446 346.814 313.679 346.305C313.913 345.796 313.999 345.358 313.938 344.991C313.881 344.626 313.685 344.367 313.351 344.214C313.016 344.06 312.69 344.08 312.373 344.274C312.059 344.469 311.785 344.821 311.552 345.33C311.319 345.839 311.231 346.276 311.288 346.641C311.349 347.008 311.546 347.268 311.881 347.421Z" fill="#100554"/>
<path d="M176.213 149.649L170.735 150.813L170.58 150.085L175.299 149.082L174.287 147.899L175.046 147.737L176.058 148.921L176.213 149.649ZM174.895 152.762C174.972 153.122 174.962 153.462 174.867 153.783C174.771 154.103 174.6 154.374 174.352 154.595C174.11 154.816 173.812 154.964 173.457 155.039C173.097 155.116 172.759 155.103 172.443 155.001C172.132 154.898 171.868 154.72 171.651 154.466C171.433 154.212 171.286 153.906 171.21 153.546C171.132 153.181 171.141 152.838 171.236 152.518C171.333 152.203 171.502 151.935 171.745 151.714C171.992 151.493 172.295 151.344 172.655 151.267C173.078 151.177 173.466 151.209 173.821 151.363L176.832 152.563L177.008 153.393L174.823 152.5C174.858 152.612 174.882 152.7 174.895 152.762ZM171.906 153.398C171.979 153.742 172.143 153.999 172.397 154.168C172.657 154.342 172.96 154.392 173.304 154.319C173.648 154.246 173.902 154.078 174.064 153.814C174.227 153.556 174.272 153.255 174.199 152.91C174.124 152.561 173.96 152.301 173.706 152.132C173.452 151.962 173.153 151.914 172.808 151.987C172.464 152.06 172.208 152.227 172.039 152.486C171.877 152.749 171.833 153.053 171.906 153.398ZM175.27 158.22C175.191 158.515 175.053 158.763 174.855 158.963C174.658 159.163 174.413 159.294 174.121 159.356C173.787 159.427 173.481 159.408 173.201 159.298C172.927 159.187 172.696 159.002 172.51 158.742C172.325 158.486 172.194 158.179 172.118 157.819C172.041 157.459 172.036 157.125 172.101 156.817C172.166 156.508 172.302 156.248 172.507 156.035C172.718 155.821 172.991 155.679 173.324 155.608C173.617 155.546 173.894 155.566 174.155 155.668C174.417 155.771 174.644 155.941 174.836 156.178C174.922 155.942 175.054 155.742 175.232 155.578C175.41 155.415 175.629 155.306 175.89 155.25C176.224 155.18 176.525 155.197 176.793 155.304C177.061 155.411 177.28 155.579 177.449 155.811C177.619 156.047 177.736 156.314 177.799 156.611C177.863 156.914 177.865 157.205 177.805 157.485C177.745 157.77 177.615 158.016 177.414 158.223C177.212 158.429 176.944 158.568 176.61 158.639C176.35 158.694 176.105 158.684 175.876 158.607C175.647 158.53 175.445 158.401 175.27 158.22ZM177.102 156.759C177.044 156.483 176.921 156.266 176.735 156.11C176.55 155.958 176.315 155.913 176.028 155.974C175.751 156.032 175.555 156.172 175.438 156.393C175.327 156.613 175.3 156.859 175.357 157.13C175.415 157.402 175.54 157.615 175.731 157.771C175.927 157.925 176.164 157.973 176.44 157.914C176.727 157.853 176.924 157.716 177.031 157.502C177.139 157.289 177.162 157.041 177.102 156.759ZM172.814 157.671C172.889 158.02 173.029 158.282 173.235 158.457C173.447 158.635 173.707 158.692 174.015 158.626C174.318 158.562 174.527 158.405 174.643 158.157C174.766 157.913 174.79 157.616 174.716 157.267C174.643 156.922 174.5 156.661 174.287 156.483C174.081 156.308 173.827 156.253 173.524 156.318C173.217 156.383 173.001 156.538 172.879 156.782C172.763 157.03 172.741 157.327 172.814 157.671ZM176.853 160.359C176.804 160.124 176.813 159.901 176.883 159.69C176.953 159.479 177.067 159.299 177.226 159.151C177.392 159.007 177.584 158.911 177.804 158.865C178.028 158.817 178.242 158.826 178.447 158.892C178.658 158.961 178.836 159.079 178.98 159.245C179.13 159.409 179.229 159.609 179.279 159.843C179.329 160.078 179.319 160.301 179.25 160.512C179.185 160.722 179.07 160.899 178.905 161.044C178.745 161.192 178.553 161.29 178.329 161.338C178.11 161.384 177.896 161.375 177.686 161.311C177.481 161.245 177.303 161.128 177.153 160.958C177.003 160.793 176.903 160.594 176.853 160.359ZM177.44 160.234C177.479 160.417 177.571 160.553 177.715 160.642C177.86 160.731 178.02 160.757 178.198 160.719C178.375 160.682 178.512 160.593 178.607 160.452C178.703 160.312 178.731 160.151 178.692 159.968C178.654 159.786 178.562 159.65 178.418 159.56C178.273 159.471 178.112 159.445 177.935 159.483C177.758 159.521 177.621 159.61 177.526 159.75C177.43 159.89 177.402 160.052 177.44 160.234Z" fill="#100554"/>
<path d="M208.668 254.83L204.255 258.278L203.797 257.692L207.599 254.722L206.17 254.102L206.782 253.624L208.21 254.244L208.668 254.83ZM208.238 261.648L207.82 261.112L206.981 261.767L206.523 261.181L207.362 260.526L205.594 258.263L206.142 257.834L210.404 257.052L210.897 257.683L206.639 258.471L207.91 260.097L209.158 259.122L209.616 259.708L208.368 260.684L208.787 261.219L208.238 261.648ZM208.088 262.196L210.881 262.522C211.225 262.564 211.528 262.571 211.79 262.542C212.055 262.518 212.276 262.437 212.453 262.299C212.701 262.105 212.835 261.878 212.855 261.619C212.879 261.363 212.806 261.126 212.635 260.908C212.444 260.664 212.221 260.517 211.965 260.467C211.717 260.417 211.46 260.496 211.195 260.703L210.742 260.123C211.041 259.889 211.341 259.759 211.645 259.732C211.953 259.701 212.239 259.752 212.504 259.883C212.772 260.019 213.003 260.21 213.197 260.458C213.378 260.689 213.498 260.951 213.557 261.243C213.616 261.536 213.593 261.827 213.489 262.118C213.389 262.406 213.196 262.662 212.911 262.885C212.658 263.082 212.357 263.203 212.006 263.247C211.662 263.292 211.277 263.289 210.85 263.236L208.841 262.978L210.403 264.977L209.835 265.42L207.609 262.57L208.088 262.196ZM214.093 264.373C213.946 264.184 213.857 263.979 213.827 263.759C213.797 263.539 213.821 263.327 213.899 263.124C213.985 262.921 214.116 262.751 214.292 262.613C214.473 262.472 214.67 262.386 214.882 262.355C215.103 262.325 215.314 262.353 215.516 262.439C215.723 262.521 215.9 262.657 216.048 262.846C216.195 263.035 216.284 263.24 216.314 263.46C216.348 263.677 216.323 263.887 216.237 264.089C216.159 264.292 216.029 264.464 215.849 264.605C215.672 264.743 215.475 264.829 215.258 264.864C215.046 264.894 214.834 264.867 214.625 264.78C214.418 264.698 214.241 264.562 214.093 264.373ZM214.566 264.003C214.681 264.151 214.823 264.233 214.992 264.25C215.161 264.266 215.317 264.219 215.46 264.107C215.602 263.996 215.686 263.856 215.71 263.688C215.735 263.52 215.69 263.363 215.575 263.215C215.46 263.068 215.318 262.986 215.149 262.969C214.98 262.952 214.824 263 214.681 263.111C214.538 263.223 214.455 263.363 214.43 263.531C214.406 263.699 214.451 263.856 214.566 264.003Z" fill="#100554"/>
<path d="M279.345 352.141L276.844 357.151L276.178 356.819L278.333 352.503L276.776 352.557L277.123 351.863L278.679 351.808L279.345 352.141ZM281.889 353.411L279.388 358.421L278.723 358.089L280.877 353.773L279.321 353.827L279.667 353.133L281.224 353.078L281.889 353.411ZM285.701 355.313L285.404 355.907L281.374 359.412L280.68 359.066L284.678 355.589L282.258 354.382L282.573 353.752L285.701 355.313ZM286.641 357.571C286.427 357.463 286.258 357.317 286.137 357.131C286.015 356.945 285.945 356.744 285.929 356.526C285.919 356.307 285.964 356.097 286.064 355.897C286.167 355.691 286.307 355.529 286.486 355.41C286.672 355.288 286.875 355.222 287.094 355.213C287.316 355.198 287.534 355.245 287.749 355.352C287.964 355.459 288.132 355.605 288.254 355.791C288.378 355.973 288.445 356.173 288.454 356.392C288.471 356.609 288.428 356.82 288.326 357.026C288.226 357.226 288.085 357.388 287.904 357.513C287.725 357.632 287.523 357.698 287.296 357.71C287.074 357.724 286.856 357.678 286.641 357.571ZM286.909 357.034C287.076 357.117 287.24 357.13 287.399 357.073C287.559 357.015 287.68 356.906 287.761 356.743C287.842 356.581 287.857 356.419 287.807 356.257C287.756 356.095 287.648 355.972 287.481 355.889C287.314 355.805 287.15 355.792 286.991 355.85C286.831 355.907 286.711 356.017 286.63 356.179C286.549 356.341 286.533 356.503 286.583 356.666C286.634 356.828 286.742 356.95 286.909 357.034Z" fill="#100554"/>
<path fill-rule="evenodd" clip-rule="evenodd" d="M276.497 340.936C278.043 337.79 281.806 336.478 284.908 337.991L284.63 338.556L291.75 341.074L285.406 336.977L285.129 337.542C281.774 335.905 277.713 337.327 276.048 340.715C274.381 344.109 275.744 348.201 279.102 349.851L310.946 365.498L311.167 365.049L279.323 349.402C276.218 347.876 274.949 344.087 276.497 340.936ZM328.29 366.068C326.81 369.081 323.1 370.304 319.99 368.787L320.253 368.252L313.149 365.704L319.507 369.771L319.77 369.236C323.116 370.869 327.131 369.56 328.739 366.288C330.349 363.011 328.924 359.024 325.575 357.378L293.73 341.731L293.51 342.18L325.354 357.827C328.467 359.357 329.774 363.049 328.29 366.068Z" fill="#C4C4C4"/>
<path fill-rule="evenodd" clip-rule="evenodd" d="M276.497 340.936C278.043 337.79 281.806 336.478 284.908 337.991L284.63 338.556L291.75 341.074L285.406 336.977L285.129 337.542C281.774 335.905 277.713 337.327 276.048 340.715C274.381 344.109 275.744 348.201 279.102 349.851L310.946 365.498L311.167 365.049L279.323 349.402C276.218 347.876 274.949 344.087 276.497 340.936ZM328.29 366.068C326.81 369.081 323.1 370.304 319.99 368.787L320.253 368.252L313.149 365.704L319.507 369.771L319.77 369.236C323.116 370.869 327.131 369.56 328.739 366.288C330.349 363.011 328.924 359.024 325.575 357.378L293.73 341.731L293.51 342.18L325.354 357.827C328.467 359.357 329.774 363.049 328.29 366.068Z" fill="url(#paint2_linear)"/>
<path fill-rule="evenodd" clip-rule="evenodd" d="M167.536 131.018L172.078 133.031L169.641 129.043L168.642 129.98L99.4418 69.0691L99.092 69.4263L168.276 130.324L167.536 131.018Z" fill="url(#paint3_linear)"/>
<path fill-rule="evenodd" clip-rule="evenodd" d="M195.021 227.981L198 233L197.959 227.183L196.979 227.449L178.159 142.118L177.668 142.212L196.496 227.58L195.021 227.981Z" fill="url(#paint4_linear)"/>
<path fill-rule="evenodd" clip-rule="evenodd" d="M269.351 330.034L273.8 333.491L271.96 328.163L270.82 328.981L205.428 246.486L205.034 246.795L270.413 329.272L269.351 330.034Z" fill="url(#paint5_linear)"/>
<path d="M92.134 60.5C92.5189 59.8333 93.4811 59.8333 93.866 60.5L97.3301 66.5C97.715 67.1667 97.2339 68 96.4641 68H89.5359C88.7661 68 88.285 67.1667 88.6699 66.5L92.134 60.5Z" fill="url(#paint6_linear)"/>
<path d="M175.134 131.5C175.519 130.833 176.481 130.833 176.866 131.5L180.33 137.5C180.715 138.167 180.234 139 179.464 139H172.536C171.766 139 171.285 138.167 171.67 137.5L175.134 131.5Z" fill="url(#paint7_linear)"/>
<path d="M201.134 234.5C201.519 233.833 202.481 233.833 202.866 234.5L206.33 240.5C206.715 241.167 206.234 242 205.464 242H198.536C197.766 242 197.285 241.167 197.67 240.5L201.134 234.5Z" fill="url(#paint8_linear)"/>
<path d="M278.33 333.5C278.715 332.833 279.677 332.833 280.062 333.5L283.526 339.5C283.911 340.167 283.43 341 282.66 341H275.732C274.962 341 274.481 340.167 274.866 339.5L278.33 333.5Z" fill="url(#paint9_linear)"/>
<defs>
<linearGradient id="paint0_linear" x1="77.5335" y1="-4.58801" x2="120.919" y2="27.8471" gradientUnits="userSpaceOnUse">
<stop stop-color="#100554"/>
<stop offset="1" stop-color="#2D4BB3"/>
</linearGradient>
<linearGradient id="paint1_linear" x1="19.802" y1="73.5459" x2="56.8017" y2="33.981" gradientUnits="userSpaceOnUse">
<stop stop-color="#100554"/>
<stop offset="1" stop-color="#2D4BB3"/>
</linearGradient>
<linearGradient id="paint2_linear" x1="275.457" y1="348.127" x2="307.883" y2="323.772" gradientUnits="userSpaceOnUse">
<stop stop-color="#100554"/>
<stop offset="1" stop-color="#2D4BB3"/>
</linearGradient>
<linearGradient id="paint3_linear" x1="163.423" y1="66.3524" x2="205.32" y2="100.69" gradientUnits="userSpaceOnUse">
<stop stop-color="#100554"/>
<stop offset="1" stop-color="#2D4BB3"/>
</linearGradient>
<linearGradient id="paint4_linear" x1="174.977" y1="162.541" x2="212.148" y2="179.446" gradientUnits="userSpaceOnUse">
<stop stop-color="#100554"/>
<stop offset="1" stop-color="#2D4BB3"/>
</linearGradient>
<linearGradient id="paint5_linear" x1="244.147" y1="263.231" x2="274.186" y2="262.37" gradientUnits="userSpaceOnUse">
<stop stop-color="#100554"/>
<stop offset="1" stop-color="#2D4BB3"/>
</linearGradient>
<linearGradient id="paint6_linear" x1="87" y1="74.8571" x2="98.5714" y2="56.8571" gradientUnits="userSpaceOnUse">
<stop stop-color="#100554"/>
<stop offset="1" stop-color="#2D4BB3"/>
</linearGradient>
<linearGradient id="paint7_linear" x1="170" y1="145.857" x2="181.571" y2="127.857" gradientUnits="userSpaceOnUse">
<stop stop-color="#100554"/>
<stop offset="1" stop-color="#2D4BB3"/>
</linearGradient>
<linearGradient id="paint8_linear" x1="196" y1="248.857" x2="207.571" y2="230.857" gradientUnits="userSpaceOnUse">
<stop stop-color="#100554"/>
<stop offset="1" stop-color="#2D4BB3"/>
</linearGradient>
<linearGradient id="paint9_linear" x1="321.196" y1="57.8571" x2="332.768" y2="39.8571" gradientUnits="userSpaceOnUse">
<stop stop-color="#100554"/>
<stop offset="1" stop-color="#2D4BB3"/>
</linearGradient>
</defs>
</svg>
