<svg width="175" height="16" viewBox="0 0 175 16" fill="none" xmlns="http://www.w3.org/2000/svg">
<path d="M9.7 3.2H6.16V15H3.86V3.2H0.3V0.999999H6.16H9.7V3.2ZM18.3639 12.18H12.5439L11.6039 15H9.10391L14.0839 0.999999H16.8439L21.8039 15H19.3239L18.3639 12.18ZM17.6239 10.02L15.4639 3.62L13.2839 10.02H17.6239ZM25.5945 0.999999V15H23.2945V0.999999H25.5945ZM36.2922 12.8V15H28.3922V0.999999H30.6922V12.8H36.2922ZM52.9102 0.999999L48.8102 15H46.1702L44.2102 8.36L42.2702 15H39.6302L35.5102 0.999999H37.8702L41.0502 12.18L43.1702 4.84L42.0502 0.999999H44.2102L47.3902 12.18L50.5502 0.999999H52.9102ZM56.7078 0.999999V15H54.4078V0.999999H56.7078ZM69.5055 0.999999V15H67.7055L61.8055 5.5V15H59.5055V0.999999H61.3055L67.2055 10.5V0.999999H69.5055ZM78.1984 0.999999C79.4651 0.999999 80.6051 1.31333 81.6184 1.94C82.6451 2.55333 83.4451 3.39333 84.0184 4.46C84.6051 5.52667 84.8984 6.70667 84.8984 8C84.8984 9.29333 84.6051 10.4733 84.0184 11.54C83.4451 12.6067 82.6451 13.4533 81.6184 14.08C80.6051 14.6933 79.4651 15 78.1984 15H73.0984H72.2984V0.999999H74.5984H78.1984ZM78.1984 12.8C79.0651 12.8 79.8384 12.5933 80.5184 12.18C81.1984 11.7667 81.7251 11.1933 82.0984 10.46C82.4851 9.72667 82.6784 8.90667 82.6784 8C82.6784 7.08 82.4851 6.26 82.0984 5.54C81.7251 4.80667 81.1984 4.23333 80.5184 3.82C79.8384 3.40667 79.0651 3.2 78.1984 3.2H74.5984V12.8H78.1984ZM99.9655 12.18H94.1455L93.2055 15H90.7055L95.6855 0.999999H98.4455L103.405 15H100.925L99.9655 12.18ZM99.2255 10.02L97.0655 3.62L94.8855 10.02H99.2255ZM102.795 0.999999H105.295L108.935 12.28L112.595 0.999999H115.075L110.315 15H107.555L102.795 0.999999ZM118.876 0.999999V15H116.576V0.999999H118.876ZM129.633 12.18H123.813L122.873 15H120.373L125.353 0.999999H128.113L133.073 15H130.593L129.633 12.18ZM128.893 10.02L126.733 3.62L124.553 10.02H128.893ZM141.868 3.2H138.328V15H136.028V3.2H132.468V0.999999H138.328H141.868V3.2ZM145.868 0.999999V15H143.568V0.999999H145.868ZM155.226 15.26C153.906 15.26 152.686 14.94 151.566 14.3C150.459 13.6467 149.579 12.7667 148.926 11.66C148.286 10.5533 147.966 9.33333 147.966 8C147.966 6.66667 148.286 5.44667 148.926 4.34C149.579 3.23333 150.459 2.36 151.566 1.72C152.686 1.06667 153.906 0.739999 155.226 0.739999C156.559 0.739999 157.779 1.06667 158.886 1.72C159.992 2.36 160.866 3.23333 161.506 4.34C162.159 5.44667 162.486 6.66667 162.486 8C162.486 9.33333 162.159 10.5533 161.506 11.66C160.866 12.7667 159.992 13.6467 158.886 14.3C157.779 14.94 156.559 15.26 155.226 15.26ZM155.226 13.02C156.146 13.02 156.986 12.8067 157.746 12.38C158.506 11.94 159.099 11.34 159.526 10.58C159.966 9.80667 160.186 8.94667 160.186 8C160.186 7.05333 159.966 6.2 159.526 5.44C159.099 4.66667 158.506 4.06667 157.746 3.64C156.986 3.2 156.146 2.98 155.226 2.98C154.306 2.98 153.466 3.2 152.706 3.64C151.946 4.06667 151.346 4.66667 150.906 5.44C150.479 6.2 150.266 7.05333 150.266 8C150.266 8.94667 150.479 9.80667 150.906 10.58C151.346 11.34 151.946 11.94 152.706 12.38C153.466 12.8067 154.306 13.02 155.226 13.02ZM174.584 0.999999V15H172.784L166.884 5.5V15H164.584V0.999999H166.384L172.284 10.5V0.999999H174.584Z" fill="white"/>
</svg>
